<?xml version="1.0" standalone="no"?>
<!DOCTYPE svg PUBLIC "-//W3C//DTD SVG 1.1//EN" "http://www.w3.org/Graphics/SVG/1.1/DTD/svg11.dtd" >
<!--
2013-9-30: Created.
-->
<svg>
<metadata>
Created by iconfont
</metadata>
<defs>

<font id="iconfont" horiz-adv-x="1024" >
  <font-face
    font-family="iconfont"
    font-weight="500"
    font-stretch="normal"
    units-per-em="1024"
    ascent="896"
    descent="-128"
  />
    <missing-glyph />
    
    <glyph glyph-name="lunbotu" unicode="&#59517;" d="M780.86564067 742.48752128a89.62188061 89.62188061 0 0 0 89.62188061-89.62188061v-537.73128134a89.62188061 89.62188061 0 0 0-89.62188061-89.62188061H243.13435933a89.62188061 89.62188061 0 0 0-89.62188061 89.62188061V652.86564067a89.62188061 89.62188061 0 0 0 89.62188061 89.62188061h537.73128134z m0-44.81093973H243.13435933a44.81093973 44.81093973 0 0 1-44.49726351-39.56806088L198.32341845 652.86564067v-537.73128134a44.81093973 44.81093973 0 0 1 39.56806088-44.49726351L243.13435933 70.32341844999996h537.73128134a44.81093973 44.81093973 0 0 1 44.49726351 39.56806088L825.67658155 115.13435933000005V652.86564067a44.81093973 44.81093973 0 0 1-39.56806088 44.49726351L780.86564067 697.67658155zM108.70153899 630.46017138v-44.81094087H41.48512768v-403.29846102h65.78246087v-44.81094087H-3.32581205v492.92034276H108.70153899z m918.62427306 0v-492.92034276h-110.5934006v44.81094087H982.51487232v403.29846102H915.29846101v44.81094087h112.02735104z m-399.48953144-136.71817899l3.58487494-2.24054727 73.31069839-55.34151111a22.40547043 22.40547043 0 0 0-23.57055488-37.91005468l-3.40563172 2.15092451-54.08680391 40.82276693-104.14062592-161.81230478a22.40547043 22.40547043 0 0 0-30.8299264-6.81126343l-3.22638734 2.50941326-45.66234795 42.34633785-88.72566215-125.64987562a22.40547043 22.40547043 0 0 0-27.78278229-7.39380566l-3.49525333 2.0613029a22.40547043 22.40547043 0 0 0-7.39380566 27.73797205l2.0613029 3.49525333 103.51327232 146.48696378a22.40547043 22.40547043 0 0 0 30.02332956 6.18390982l3.54006472-2.68865649 44.76612949-41.49493077 102.79629596 159.52694726a22.40547043 22.40547043 0 0 0 28.67900189 8.02115812zM366.36444445 563.24376121a33.60820565 33.60820565 0 1 0 0-67.21641131 33.60820565 33.60820565 0 0 0 0 67.21641131z"  horiz-adv-x="1024" />

    
    <glyph glyph-name="tongji" unicode="&#59516;" d="M442.9 350.5V754.8C236.5 736.1 74.6 562.3 74.6 350.5c0-224.3 181.4-406.1 405.2-406.1 211.3 0 384.7 162.2 403.3 369.2H479.8c-20.4 0-36.9 16.5-36.9 36.9zM883.1 313.6zM515.7 823.4v-439h437.9c-21 232.8-205.7 418-437.9 439z"  horiz-adv-x="1024" />

    
    <glyph glyph-name="biaoqiankuozhan_wode-315" unicode="&#60332;" d="M502.272 361.472c114.2784 0 207.2576 92.9792 207.2576 207.2576 0 114.2784-92.9792 207.3088-207.2576 207.3088S294.9632 683.0592 294.9632 568.7808c0-114.2784 93.0304-207.3088 207.3088-207.3088zM653.568 334.74559999999997h-302.592c-114.7392 0-208.0768-93.3376-208.0768-208.0768 0-75.1104 61.0816-136.192 136.192-136.192h446.4128c75.1104 0 136.192 61.0816 136.192 136.192-0.0512 114.7392-93.3888 208.0768-208.128 208.0768z"  horiz-adv-x="1024" />

    
    <glyph glyph-name="dingdan2" unicode="&#61073;" d="M711.1168 817.3568h-35.3792v-161.5872c0-33.9968 27.5968-61.5936 61.5936-61.5936h166.6048v30.3104c0 9.7792-3.8912 19.2-10.8032 26.112l-155.904 155.904a36.8128 36.8128 0 0 1-26.112 10.8544zM737.3312 537.4976c-65.1776 0-118.2208 53.0432-118.2208 118.2208V814.8992H234.1888c-48.9984 0-88.6784-39.68-88.6784-88.6784v-684.288c0-48.9984 39.68-88.6784 88.6784-88.6784h578.6624c48.9984 0 88.6784 39.68 88.6784 88.6784v495.616h-164.1984z m-384.3072 39.8336h211.3536c16.3328 0 29.5424-13.2608 29.5424-29.5424s-13.2608-29.5424-29.5424-29.5424H353.024c-16.3328 0-29.5424 13.2608-29.5424 29.5424s13.2096 29.5424 29.5424 29.5424z m340.8896-425.984H353.024c-16.3328 0-29.5424 13.2608-29.5424 29.5424 0 16.3328 13.2608 29.5424 29.5424 29.5424h340.8896c16.3328 0 29.5424-13.2608 29.5424-29.5424 0.0512-16.3328-13.2096-29.5424-29.5424-29.5424z m0 183.4496H353.024c-16.3328 0-29.5424 13.2608-29.5424 29.5424 0 16.3328 13.2608 29.5424 29.5424 29.5424h340.8896c16.3328 0 29.5424-13.2608 29.5424-29.5424 0.0512-16.3328-13.2096-29.5424-29.5424-29.5424z"  horiz-adv-x="1024" />

    
    <glyph glyph-name="shouye3" unicode="&#61277;" d="M899.1232 478.8736l-373.504 274.432a23.6544 23.6544 0 0 1-28.0576 0l-373.504-274.432c-18.432-13.568-8.8576-42.8032 14.0288-42.8032H179.2v-378.5728c0-45.2608 36.6592-81.92 81.92-81.92h500.992c45.2608 0 81.92 36.6592 81.92 81.92V436.0704h41.1136c22.8864 0 32.4608 29.2864 13.9776 42.8032z m-225.7408-302.9504c-59.8016-65.4336-119.7056-82.3296-165.4784-82.3296-8.96 0-17.408 0.6656-25.1904 1.6896-71.2704 9.6256-126.72 57.856-141.7216 87.3984-7.68 15.104-1.6896 33.6384 13.4144 41.3184 15.1552 7.68 33.6384 1.6896 41.3184-13.4144 4.608-9.0624 41.6256-47.104 95.232-54.3744 47.9232-6.5024 94.0544 14.08 137.0624 61.184 11.4176 12.544 30.8736 13.4144 43.4176 1.9456a30.79168 30.79168 0 0 0 1.9456-43.4176zM899.1232 519.8336l-373.504 274.432a23.6544 23.6544 0 0 1-28.0576 0l-373.504-274.432c-18.432-13.568-8.8576-42.8032 14.0288-42.8032H179.2v-378.5728c0-45.2608 36.6592-81.92 81.92-81.92h500.992c45.2608 0 81.92 36.6592 81.92 81.92V477.0304h41.1136c22.8864 0 32.4608 29.2864 13.9776 42.8032z m-225.7408-302.9504c-59.8016-65.4336-119.7056-82.3296-165.4784-82.3296-8.96 0-17.408 0.6656-25.1904 1.6896-71.2704 9.6256-126.72 57.856-141.7216 87.3984-7.68 15.104-1.6896 33.6384 13.4144 41.3184 15.1552 7.68 33.6384 1.6896 41.3184-13.4144 4.608-9.0624 41.6256-47.104 95.232-54.3744 47.9232-6.5024 94.0544 14.08 137.0624 61.184 11.4176 12.544 30.8736 13.4144 43.4176 1.9456a30.79168 30.79168 0 0 0 1.9456-43.4176z"  horiz-adv-x="1024" />

    
    <glyph glyph-name="guanyuwomen" unicode="&#59514;" d="M512-87.47429063000004c-259.96629895 0-471.47429063 211.50799168-471.47429063 471.47429063S252.03370105 855.47429063 512 855.47429063 983.47429063 643.96629895 983.47429063 384 771.96629895-87.47429063000004 512-87.47429063000004z m0 866.5052333c-217.84144825 0-395.03094267-177.18949442-395.03094267-395.03094267S294.15855175-11.030942669999945 512-11.030942669999945 907.03094267 166.15855175000002 907.03094267 384 729.84144825 779.0309426700001 512 779.0309426700001zM473.70468117 626.1442467300001h76.44334797v-280.29227587H473.70468117zM473.70468117 269.26133321h76.44334797v-127.40557994H473.70468117z"  horiz-adv-x="1024" />

    
    <glyph glyph-name="jiaosequanxian" unicode="&#59515;" d="M512.485824-127.99536h-0.494469a25.357382 25.357382 0 0 0-18.422139 7.429713l-258.302976 168.626594A278.931207 278.931207 0 0 0 81.676574 297.311338V680.943177a63.279348 63.279348 0 0 0 42.562367 59.86878L498.120866 892.182852a27.132399 27.132399 0 0 0 27.753656 0L899.743769 740.811957a63.279348 63.279348 0 0 0 42.575045-59.86878V297.311338a278.931207 278.931207 0 0 0-153.576987-249.186998l-258.302977-168.626593a25.357382 25.357382 0 0 0-17.940348-7.429713z m-0.494469 971.086319l-369.380991-149.608556c-0.507148-0.202859-1.014295-0.393039-1.534121-0.570541a12.678691 12.678691 0 0 1-8.684904-12.032078V297.311338a226.859822 226.859822 0 0 1 126.786912-204.431218 22.821644 22.821644 0 0 0 2.535739-1.496085l250.277365-163.415651 250.22665 163.415651a22.999146 22.999146 0 0 0 2.535738 1.496085 226.859822 226.859822 0 0 1 126.786912 204.431218V680.943177a12.678691 12.678691 0 0 1-8.697582 12.032078c-0.507148 0.177502-1.026974 0.367682-1.521443 0.570541zM511.446171 379.355149a144.663867 144.663867 0 1 0 144.663867 144.663867 144.82869 144.82869 0 0 0-144.663867-144.663867z m0 238.60029a93.949102 93.949102 0 1 1 93.949102-93.936423 94.050532 94.050532 0 0 1-93.949102 93.936423zM513.614227 133.071572a25.357382 25.357382 0 0 0-25.357382 25.357382V406.512905a25.357382 25.357382 0 1 0 50.714765 0v-248.083951a25.357382 25.357382 0 0 0-25.357383-25.357382zM596.710369 298.008666h-69.048152a25.357382 25.357382 0 0 0 0 50.714765h69.048152a25.357382 25.357382 0 0 0 0-50.714765z"  horiz-adv-x="1024" />

    
    <glyph glyph-name="lianxikefu" unicode="&#59504;" d="M307.2-121.6c-12.8 0-32 6.4-38.4 12.8-19.2 19.2-25.6 44.8-12.8 70.4l32 83.2C288 51.2 294.4 64 294.4 64c0 19.2 19.2 32 32 25.6 19.2 0 32-12.8 32-32 0-12.8-6.4-32-12.8-44.8l-32-76.8 198.4 108.8c6.4 0 12.8 6.4 12.8 6.4 243.2 6.4 441.6 179.2 441.6 396.8 0 204.8-204.8 384-448 384-236.8 0-441.6-172.8-448-384-6.4-121.6 57.6-230.4 166.4-313.6 12.8-12.8 19.2-32 6.4-44.8-12.8-12.8-32-19.2-44.8-6.4-128 89.6-198.4 224-198.4 364.8 6.4 243.2 243.2 448 512 448 275.2 0 512-204.8 512-448 0-249.6-224-454.4-492.8-460.8l-198.4-108.8C326.4-121.6 320-121.6 307.2-121.6zM697.6 480 339.2 480C320 480 307.2 492.8 307.2 512c0 19.2 12.8 32 32 32l358.4 0c19.2 0 32-12.8 32-32C729.6 492.8 716.8 480 697.6 480zM576 332.8 339.2 332.8c-19.2 0-32 12.8-32 32 0 19.2 12.8 32 32 32l243.2 0c19.2 0 32-12.8 32-32C608 345.6 595.2 332.8 576 332.8z"  horiz-adv-x="1031" />

    
    <glyph glyph-name="shezhi7" unicode="&#59509;" d="M704.808016-128c-19.734215 0-38.906057 8.154423-51.284675 21.817555-16.877611 18.500827-70.335095 66.602977-114.091628 66.602977-43.449783 0-97.731657-48.376946-113.324755-65.331244-12.353056-13.43307-31.390695-21.440509-50.926801-21.44051-9.304734 0-18.085437 1.776591-26.099266 5.30421l-1.405936 0.613499-133.007844 74.386744-1.322857 0.93303c-24.214036 16.941517-33.429301 50.102412-21.434119 77.102755 0.089469 0.21089 12.263588 28.304028 12.263588 53.923999 0 77.735426-63.241514 140.983331-140.989721 140.983331h-4.709883l-0.856342-0.012781c-22.271289 0-40.40146 19.78534-46.197747 50.402771-0.460124 2.447605-11.34973 60.525503-11.34973 106.269516 0 45.750404 10.883215 103.821912 11.34973 106.269517 5.860193 31.007258 24.386582 50.920411 47.047699 50.383599h4.709882c77.741817 0 140.989721 63.247905 140.989721 140.989721 0 25.607189-12.167729 53.693937-12.295541 53.975124-11.982401 26.987562-2.70962 60.135676 21.606666 77.032459l1.380372 0.958592 140.369832 77.096365 1.463451 0.619889c7.898799 3.367853 16.55808 5.080538 25.728611 5.080538 19.484981 0 38.567354-7.847674 51.035441-20.986775 16.615596-17.395251 69.127269-62.634406 111.631242-62.634406 42.107754 0 94.293506 44.344469 110.857977 61.43297 12.38501 12.870696 31.326789 20.577776 50.639224 20.577777 9.355859 0 18.174906-1.7702 26.201516-5.259476l1.425107-0.619889 135.576872-75.319774 1.335638-0.93303c24.252379-16.928736 33.499597-50.07685 21.491634-77.109146-0.10225-0.2045-12.269978-28.297638-12.269978-53.917608 0-77.741817 63.241514-140.989721 140.983331-140.989722h4.716272c22.629163 0.504858 41.174725-19.376341 47.041309-50.383599 0.460124-2.447605 11.343339-60.525503 11.343339-106.275907 0-45.744013-10.883215-103.828302-11.343339-106.269517-5.866583-31.007258-24.412145-50.850114-47.041309-50.389989h-4.716272c-77.729035 0-140.983331-63.241514-140.983331-140.983331 0-25.619971 12.167729-53.693937 12.295541-53.981515 11.96962-26.962 2.722401-60.110113-21.555541-77.038849l-1.3612-0.933029-137.858321-76.201679-1.437888-0.62628c-7.886017-3.399807-16.506955-5.118882-25.619971-5.118882z m0.325922 52.198533c0.639061-0.408999 2.422043-1.124748 4.307273-1.124748l0.210891 0.006391 132.471033 73.217262c-3.195307 7.432284-17.817031 43.488127-17.817032 81.084108 0 112.468412 88.586688 204.633844 199.636385 210.404568 1.597653 8.831828 10.276107 58.467726 10.276107 95.725004 0 37.250888-8.678454 86.880394-10.276107 95.725004-111.049696 5.770724-199.636384 97.936156-199.636385 210.404568 0 37.659887 14.672849 73.760464 17.848985 81.128842l-130.342959 72.405654a7.400331 7.400331 0 0 1-0.536812 0.019172c-2.223934 0-4.300883-0.805217-4.978288-1.271732-2.198371-2.249496-21.082635-21.408556-48.217181-40.497319-40.165008-28.259294-78.150816-42.58705-112.896583-42.587051-35.08447 0-73.370637 14.608943-113.80405 43.424221-27.300702 19.459419-46.280825 38.982744-48.472806 41.270584-0.690186 0.479296-2.792698 1.310076-5.035803 1.310076l-0.466515-0.012782-134.982545-74.13112c3.233651-7.521752 17.810641-43.513689 17.810641-81.045764 0-112.468412-88.593079-204.633844-199.649165-210.404568-1.597653-8.831828-10.276107-58.474116-10.276107-95.725004 0-37.238107 8.672063-86.880394 10.276107-95.725004 111.056086-5.764334 199.642775-97.942547 199.642774-210.404568 0-37.730184-14.723974-73.901058-17.855374-81.179967l127.76115-71.434281a9.074672 9.074672 0 0 1 4.543727 1.073623c2.39009 2.569027 21.472462 22.769757 48.958492 42.912972 40.970225 30.016713 79.901844 45.245546 115.714844 45.245546 36.164483 0 75.38368-15.51641 116.596748-46.11467 27.645795-20.520261 46.804855-41.098037 49.188555-43.699017zM539.891837 196.489806c-103.527943 0-187.756233 84.22829-187.756233 187.756233s84.22829 187.756233 187.756233 187.756233c103.534334 0 187.756233-84.22829 187.756233-187.756233s-84.221899-187.756233-187.756233-187.756233z m0 321.236983c-73.600699 0-133.48075-59.880051-133.48075-133.48075 0-73.60709 59.880051-133.48075 133.48075-133.480751 73.600699 0 133.48075 59.873661 133.48075 133.480751 0 73.600699-59.873661 133.48075-133.48075 133.48075z"  horiz-adv-x="1084" />

    
    <glyph glyph-name="guanlianguize" unicode="&#59510;" d="M898.844444 492.088889V691.2c0 56.888889-56.888889 85.333333-85.333333 85.333333H204.8c-39.822222 0-79.644444-39.822222-85.333333-108.088889v-563.2c0-91.022222 62.577778-85.333333 85.333333-85.333333h176.355556c17.066667 0 28.444444-11.377778 28.444444-28.444444s-11.377778-28.444444-28.444444-28.444445H199.111111c-51.2 0-142.222222 34.133333-142.222222 119.466667V674.133333C56.888889 793.6 130.844444 839.111111 199.111111 839.111111h620.088889c79.644444 0 142.222222-51.2 142.222222-142.222222v-204.8c0-17.066667-11.377778-28.444444-28.444444-28.444445-22.755556-5.688889-34.133333 11.377778-34.133334 28.444445zM210.488889 304.355556h119.466667v-56.888889H210.488889v56.888889z m0 352.711111h546.133333v-56.888889H210.488889v56.888889zM967.111111 167.822222h-91.022222c-5.688889-34.133333-17.066667-62.577778-34.133333-85.333333l62.577777-62.577778-39.822222-39.822222-62.577778 62.577778c-22.755556-17.066667-56.888889-34.133333-85.333333-34.133334v-91.022222h-56.888889v91.022222c-34.133333 5.688889-62.577778 17.066667-85.333333 34.133334L512-19.911111l-39.822222 39.822222 62.577778 62.577778c-17.066667 22.755556-34.133333 56.888889-34.133334 85.333333H409.6v56.888889h91.022222c5.688889 34.133333 17.066667 62.577778 34.133334 85.333333L472.177778 372.622222l39.822222 39.822222 62.577778-62.577777c22.755556 17.066667 56.888889 34.133333 85.333333 34.133333V475.022222h56.888889V384c34.133333-5.688889 62.577778-17.066667 85.333333-34.133333l62.577778 62.577777 39.822222-39.822222-62.577777-62.577778c17.066667-22.755556 34.133333-56.888889 34.133333-85.333333H967.111111v-56.888889z m-142.222222 11.377778l5.688889 17.066667-5.688889 17.066666c-5.688889 22.755556-11.377778 45.511111-28.444445 62.577778l-11.377777 17.066667-17.066667 11.377778c-17.066667 11.377778-39.822222 22.755556-62.577778 28.444444l-17.066666 5.688889-17.066667-5.688889c-22.755556-5.688889-45.511111-11.377778-62.577778-28.444444l-17.066667-11.377778-11.377777-17.066667c-11.377778-17.066667-22.755556-39.822222-28.444445-62.577778l-5.688889-17.066666 5.688889-17.066667c5.688889-22.755556 11.377778-45.511111 28.444445-62.577778l11.377777-17.066666 17.066667-11.377778c17.066667-11.377778 39.822222-22.755556 62.577778-28.444445l17.066667-5.688889 17.066666 5.688889c22.755556 5.688889 45.511111 11.377778 62.577778 28.444445l17.066667 11.377778 11.377777 17.066666c17.066667 17.066667 22.755556 39.822222 28.444445 62.577778zM210.488889 480.711111h182.044444v-56.888889H210.488889v56.888889z"  horiz-adv-x="1024" />

    
    <glyph glyph-name="qiye" unicode="&#59511;" d="M950.08 481.69l-40.67 34.42-95.67 81L701.6 692l-90.06 76.22-24.65 20.86c-1.74 1.47-3.47 3-5.21 4.41-11.45 9.62-23.34 16.68-37.68 21.29-20.66 6.65-45.12 6.6-65.67-0.45a110.86 110.86 0 0 1-36.33-20.9c-5.25-4.41-10.47-8.86-15.7-13.29l-78.65-66.57-110.73-93.68-103.16-87.31L76.33 484l-2.7-2.28c-9.18-7.77-10.63-22.85-6.28-33.16a30.44 30.44 0 0 1 27.75-18.7h799.67c10.81 0 21.63-0.13 32.44 0h1.4c15.89 0 31.1 14 30.36 30.36s-13.34 30.36-30.36 30.36H129c-10.81 0-21.64 0.2-32.45 0H95.1l21.47-51.82 38.17 32.3 90.36 76.48 108.54 91.86 91.71 77.6c13.37 11.32 26.89 22.48 40.12 34 1.81 1.57 3.72 1.75-2.76-2.07 0.8 0.48 1.58 1.14 2.35 1.66a73.54 73.54 0 0 0 11.29 6.17l-7.25-3.06a80.93 80.93 0 0 0 20.72 5.62l-8.07-1.08a85.79 85.79 0 0 0 20.13 0l-8.07 1.08a81 81 0 0 0 20.73-5.62l-7.26 3.06a73.17 73.17 0 0 0 11.3-6.17 14.64 14.64 0 0 1 2.34-1.66c-0.18 0.06-6.19 5.07-2.76 2.07 0.35-0.31 0.71-0.6 1.07-0.9l5.85-4.95 25-21.18 87-73.64 108.35-91.7 94.68-80.14c15.42-13 30.76-26.2 46.27-39.15l0.65-0.55c6.26-5.3 13-8.9 21.46-8.9 7.45 0 16.35 3.31 21.47 8.9 10.49 11.21 13.04 31.95 0.12 42.9zM107.73-51.629999999999995h776.56c10.56 0 21.13-0.15 31.69 0h1.35c15.88 0 31.1 14 30.36 30.36s-13.34 30.36-30.36 30.36H140.77c-10.56 0-21.13 0.14-31.69 0h-1.35c-15.88 0-31.09-14-30.36-30.36s13.34-30.36 30.36-30.36zM612 9.149999999999977c0 12.17 0.16 24.35 0.16 36.52V429.86l60.88-0.06c0-11-0.16-21.92-0.16-32.86v-387.85M867.23-11.460000000000036v408.4c0 18.76 0.36 37.57 0 56.33v0.79c0 15.88-14 31.1-30.36 30.36s-30.36-13.34-30.36-30.36v-408.39c0-18.77-0.37-37.58 0-56.34v-0.79c0-15.88 14-31.09 30.36-30.36s30.36 13.34 30.36 30.36zM352 9.090000000000032c0 12.19 0.16 24.39 0.16 36.58V429.8H413c0-11-0.16-21.92-0.16-32.86v-387.79M219.55-11.460000000000036v408.4c0 18.76 0.36 37.57 0 56.33v0.79c0 15.88-14 31.1-30.36 30.36s-30.36-13.34-30.36-30.36v-408.39c0-18.77-0.37-37.58 0-56.34v-0.79c0-15.88 14-31.09 30.36-30.36s30.36 13.34 30.36 30.36z"  horiz-adv-x="1024" />

    
    <glyph glyph-name="hrstaffarchives" unicode="&#59512;" d="M844.58204492 17.72021484000004c-5.37210352 169.46544727-121.11651563 311.58200391-276.90751758 357.00069727 2.93023828 1.46511914 10.25583398 5.86047656 11.72095313 6.34884961 8.3023418 4.39535742 26.86051758 17.58142969 28.81400976 18.55817578 6.83722266 5.37210352 24.90702539 21.48841406 27.34889063 23.9302793 4.88373047 4.88373047 30.76750195 37.60472461 33.20936719 41.51170898 5.37210352 8.3023418 9.76746094 16.60468359 13.67444531 25.39539844 0.48837305 1.46511914 1.46511914 2.44186523 1.95349219 3.41861133 14.65119141 31.74424805 22.46516016 66.90710742 22.46516015 102.06996679 0 135.76770703-110.37230859 246.14001562-246.14001562 246.14001563h-0.48837305C324.46475 842.09391797 214.09244141 731.72160937 214.09244141 595.95390234c0-94.25599805 54.2094082-180.2096543 139.18631836-221.23299023-155.79100195-45.41869336-271.53541406-187.53525-276.90751758-357.00069727 0-0.97674609-0.48837305-1.46511914-0.48837305-2.44186523 0-0.48837305 0.48837305-0.97674609 0.48837305-1.46511914 0-4.39535742 1.46511914-9.27908789 3.41861133-13.18607227 7.81396875-16.60468359 27.83726367-23.9302793 44.44194726-15.6279375 7.3255957 3.41861133 12.69769922 9.27908789 16.11631055 16.6046836 1.46511914 3.41861133 1.95349219 6.83722266 2.44186523 10.25583398 0 1.46511914 0.97674609 2.44186523 0.9767461 3.90698438 0 1.46511914-0.48837305 2.44186523-0.9767461 3.90698437v15.13956445c0 2.93023828 0.48837305 5.37210352 1.46511914 7.81396875h-0.97674609c10.25583398 86.4420293 54.69778125 164.5817168 123.55838086 217.32600586 1.46511914 0.48837305 2.44186523 0.97674609 3.90698437 1.95349219l0.48837305-0.48837305C311.76705078 291.20912109000005 358.65086328 311.72078906 408.46491406 320.51150391l2.44186524 0.48837304c7.3255957 0.97674609 14.65119141 2.44186523 22.46516015 2.93023828 6.83722266 0.48837305 13.18607227 0.97674609 20.02329493 0.9767461 2.44186523 0 4.39535742 0.48837305 6.83722265 0.48837304 10.74420703 0 21.00004102-0.97674609 31.255875-1.95349218v0.48837304c149.44215234-15.13956445 268.60517578-132.3490957 286.18660547-281.79124804h-0.97674609c0.48837305-2.44186523 1.46511914-4.88373047 1.46511914-7.81396875v-15.13956446c-0.48837305-1.46511914-0.97674609-2.44186523-0.9767461-3.90698437s0.48837305-2.44186523 0.9767461-3.90698438c0.48837305-3.41861133 0.97674609-6.83722266 2.44186523-10.25583398 5.37210352-12.20932617 17.58142969-20.02329492 30.76750195-20.02329492 18.06980273 0 32.72099414 14.65119141 33.20936719 32.72099414v1.46511914c0.48837305 0.97674609 0 1.46511914 0 2.44186523M279.53442969 595.95390234c0 100.11647461 81.06992578 181.18640039 181.18640039 181.18640039s181.18640039-81.06992578 181.18640039-181.18640039S560.83730469 414.76750195 460.72083008 414.76750195 279.53442969 495.83742773 279.53442969 595.95390234M1114.1639668 9.417873050000026c-5.37210352 168.97707422-121.11651563 311.09363086-276.90751758 357.00069726 84.97691016 41.02333594 139.18631836 126.97699219 139.18631836 221.23299024 0 135.76770703-109.88393555 245.65164258-245.16326953 246.14001562V833.30320312c-16.60468359-0.97674609-29.79075586-15.13956445-29.79075586-32.23262109 0-17.09305664 13.18607227-30.76750195 29.79075586-31.74424805v-0.48837304h2.44186523c98.65135547-1.95349219 177.27941602-82.53504492 177.76778906-181.18640039 0-92.30250586-71.30246484-177.76778906-160.67473242-190.46548828v-0.48837305c-7.81396875-0.97674609-15.6279375-4.88373047-21.48841406-10.25583399-8.3023418-7.81396875-13.18607227-18.55817578-13.18607227-29.79075586 0-12.69769922 6.34884961-23.9302793 15.13956446-31.255875 6.83722266-5.86047656 16.11631055-9.76746094 25.88377148-9.76746093h0.48837305c7.3255957-0.48837305 15.13956445-1.46511914 22.46516015-2.93023828l2.93023829-0.48837305c49.81405078-8.79071484 96.69786328-29.30238281 136.74445312-60.06988477l0.48837305 0.48837305c0.97674609-0.97674609 2.44186523-1.46511914 3.90698437-1.95349219 68.86059961-52.74428906 113.79091992-130.88397656 123.55838086-217.32600586h-0.97674609c0.48837305-2.44186523 1.46511914-4.88373047 1.46511914-7.81396875-0.48837305-4.88373047 0-9.76746094 0-15.13956445 0-1.46511914-0.97674609-2.44186523-0.9767461-3.90698437 0-1.46511914 0.48837305-2.44186523 0.9767461-3.90698438 0.48837305-3.41861133 0.97674609-6.83722266 2.44186523-10.25583398 5.37210352-12.20932617 17.58142969-20.02329492 30.76750196-20.02329493 12.69769922 0 24.41865234 7.3255957 30.2791289 19.04654883 1.95349219 4.39535742 2.93023828 8.79071484 3.41861133 13.18607227 0 0.48837305 0.48837305 0.97674609 0.48837305 0.97674609-0.97674609 2.44186523-1.46511914 3.41861133-1.46511914 3.90698438M758.62838867 313.67428125000004h-0.48837304 0.48837304z"  horiz-adv-x="1178" />

    
    <glyph glyph-name="xitong2" unicode="&#59513;" d="M842.472727 812.218182h-660.945454c-65.163636 0-125.672727-60.509091-125.672728-125.672727v-107.054546c0-18.618182 18.618182-37.236364 37.236364-37.236364s37.236364 18.618182 37.236364 37.236364v107.054546c0 27.927273 23.272727 51.2 51.2 51.2h660.945454c27.927273 0 51.2-23.272727 51.2-51.2v-111.709091c0-18.618182 18.618182-37.236364 37.236364-37.236364s37.236364 18.618182 37.236364 37.236364v111.709091c0 69.818182-60.509091 125.672727-125.672728 125.672727zM930.909091 225.745455c-18.618182 0-37.236364-18.618182-37.236364-37.236364v-111.709091c0-27.927273-23.272727-51.2-51.2-51.2h-660.945454c-27.927273 0-51.2 23.272727-51.2 51.2v111.709091c0 18.618182-18.618182 37.236364-37.236364 37.236364s-37.236364-18.618182-37.236364-37.236364v-111.709091c0-65.163636 60.509091-125.672727 125.672728-125.672727h660.945454c65.163636 0 125.672727 60.509091 125.672728 125.672727v111.709091c0 23.272727-18.618182 37.236364-37.236364 37.236364zM372.363636 509.672727c-9.309091 18.618182-32.581818 23.272727-51.2 13.963637l-176.872727-102.4c-9.309091-4.654545-18.618182-18.618182-18.618182-32.581819s9.309091-23.272727 18.618182-32.581818l176.872727-102.4c18.618182-9.309091 41.890909-4.654545 51.2 13.963637 9.309091 18.618182 4.654545 41.890909-13.963636 51.2l-121.018182 69.818181 121.018182 69.818182c18.618182 9.309091 23.272727 32.581818 13.963636 51.2zM651.636364 267.636364c9.309091-18.618182 32.581818-23.272727 51.2-13.963637l176.872727 102.4c9.309091 4.654545 18.618182 18.618182 18.618182 32.581818s-9.309091 23.272727-18.618182 32.581819l-176.872727 102.4c-18.618182 9.309091-41.890909 4.654545-51.2-13.963637-9.309091-18.618182-4.654545-41.890909 13.963636-51.2l121.018182-69.818182-121.018182-69.818181c-18.618182-9.309091-23.272727-32.581818-13.963636-51.2zM488.727273 216.436364l116.363636 325.818181c4.654545 18.618182-4.654545 37.236364-23.272727 46.545455-18.618182 4.654545-37.236364-4.654545-46.545455-23.272727l-116.363636-325.818182c-4.654545-18.618182 4.654545-37.236364 23.272727-46.545455s37.236364 0 46.545455 23.272728z"  horiz-adv-x="1024" />

    
    <glyph glyph-name="Kxiantu" unicode="&#59502;" d="M59.733333-14.222222V844.8h-56.888889v-910.222222h1024V-14.222222zM258.844444 275.911111h56.888889v85.333333h56.888889v227.555556h-56.888889v56.888889h-56.888889v-56.888889h-56.888888v-227.555556h56.888888zM514.844444 105.244444h56.888889v256h56.888889v341.333334h-56.888889v113.777778h-56.888889v-113.777778h-56.888888v-341.333334h56.888888zM770.844444 190.577778h56.888889v142.222222h56.888889v199.111111h-56.888889v142.222222h-56.888889v-142.222222h-56.888888v-199.111111h56.888888z"  horiz-adv-x="1026" />

    
    <glyph glyph-name="huantu" unicode="&#59505;" d="M546.747475 636.3345449999999c145.454545-18.182465 219.636364-124.36299 219.636363-253.090909 0-33.454545-5.091556-65.454545-16.727919-94.545454l126.545455-73.453899c23.272727 50.907798 34.909091 108.36299 34.909091 167.999353 0 209.454545-146.182465 381.818828-364.364283 400v-146.909091z m0 0M474.020202 130.15272700000003c-109.090909 18.182465-217.453899 124.364283-217.453899 253.090909 0 128.727919 108.36299 234.908444 217.453899 253.090909V783.243636C292.20202 765.062465 111.838384 592.698182 111.838384 383.24363600000004s180.363636-381.818828 362.181818-400V130.15272700000003z m0 0M712.565657 225.42610100000002c-40.000646-50.907798-93.090909-85.091556-165.818182-95.273374V-16.756363999999962c109.090909 10.909737 224.727919 74.909737 290.182464 168.727273l-124.364282 73.455192z m0 0"  horiz-adv-x="1024" />

    
    <glyph glyph-name="shuiqiutu" unicode="&#59506;" d="M511.83560059-37.875c-56.86048718 0-112.01728903 11.1804332-163.9796814 33.11537723-50.15222726 21.18958237-95.19340017 51.64295141-133.95223388 90.29530536-38.65235394 38.65235394-69.10572299 83.69352603-90.29530536 133.95223388-21.93494485 51.96239236-33.11537723 107.11919504-33.11537723 163.97968223 0 56.86048718 11.1804332 112.01728903 33.11537723 163.97968139 21.18958237 50.15222726 51.64295141 95.19340017 90.29530536 133.95223388C252.55603842 720.05186792 297.59721133 750.5052369699999 347.85591919 771.69481933 399.71183097 793.6297641799999 454.97511341 804.81019657 511.83560059 804.81019657s112.01728903-11.1804332 163.97968222-33.11537724c50.15222726-21.18958237 95.19340017-51.64295141 133.95223388-90.29530535 38.65235394-38.65235394 69.10572299-83.69352603 90.29530536-133.95223389 21.93494485-51.96239236 33.11537723-107.11919504 33.11537722-163.97968139 0-56.86048718-11.1804332-112.01728903-33.11537722-163.97968223-21.18958237-50.15222726-51.64295141-95.19340017-90.29530536-133.95223388-38.65235394-38.65235394-83.69352603-69.10572299-133.95223388-90.29530537-51.96239236-21.93494485-107.11919504-33.11537723-163.97968223-33.11537722z m0 808.71797708c-213.59950818 0-387.37537839-173.77587103-387.37537839-387.37537838s173.77587103-387.37537839 387.37537838-387.37537922 387.37537839 173.77587103 387.37537922 387.37537922S725.43510877 770.84297707 511.83560059 770.84297707z m0 0M705.31032984 437.5595971l-73.36493592-141.93825677H611.1817331l69.53164453 133.95223389c-45.89301517-22.25438581-82.20280188-78.79543121-150.88260416-84.97128983-4.89809399-14.1618815-12.13875604-25.23583411-21.61550308-33.00889745-9.79618882-7.98602371-22.04142462-12.03227545-36.94866861-12.03227546-19.59237762 0-35.03202292 7.02770086-46.21245612 21.0831026-12.8841177 16.29148755-19.59237762 42.59212509-20.12477893 78.68895062C368.40661965 428.40229019 332.20331272 455.23532904 283.32884924 440.64752683l-3.0879289-15.5461259c12.24523582 8.51842502 25.02287375 12.77763794 38.43939277 12.77763713 17.78221252 0 32.68945568-6.17585779 44.93469232-18.4210936 12.24523582-12.24523582 18.31461383-28.11080264 18.31461384-47.38373933 0-18.42109443-5.32401553-34.28666043-16.0785272-47.70318025-12.99059829-16.50444873-30.87929059-24.7034328-53.34663675-24.70343281-18.52757419 0-33.54129877 5.21753494-45.25413327 15.5461259s-18.42109443 24.06455091-20.01829917 41.20788069l26.19415695 2.23608665c1.91664569-12.77763794 6.49529873-22.36086557 13.52299962-28.74968455s15.54612589-9.68970822 25.55527587-9.68970822c12.03227545 0 22.14790522 4.57865387 30.45336905 13.6294802 8.30546467 9.05082632 12.45819699 21.08310178 12.45819699 36.09682636 0 14.26836209-4.04625173 25.44879446-12.03227545 33.64777852-7.98602371 8.19898406-18.42109443 12.3517164-31.41169272 12.3517164-8.09250348 0-15.3331647-1.81016511-21.72198367-5.43049612-6.49529873-3.62033103-11.60635391-8.41194442-15.22668494-14.1618815l-23.42566901 3.08792889 5.74993708 30.2404087c-20.44421988-11.39339355-90.40178595-43.55044794-145.87802875-68.14740015 0 0 17.88869229-367.14411887 400.36597668-370.6579693 0 0 397.06508743 0 400.68541764 403.87982712-58.45769192 59.30953418-174.41475293 48.02262122-207.21068838 42.80508544z m68.25387991-127.98933562c-8.41194442-9.26378751-18.95349573-13.94892114-31.4116919-13.94892115-12.24523582 0-22.57382676 4.57865387-30.66633023 13.84244055-8.19898406 9.15730691-12.24523582 22.99974746-12.24523581 41.4208419 0 14.58780305 3.62033103 26.93951944 10.96747202 37.0551492 7.34714182 10.11562976 17.88869229 15.22668494 31.94409402 15.2266841 12.77763794 0 23.31918842-4.57865387 31.73113284-13.62948019 8.41194442-9.15730691 12.56467676-22.46734616 12.56467758-40.14307726-0.21296035-17.35629098-4.47217328-30.55984964-12.88411852-39.82363715z m0 0M742.68491916 385.81016511c-6.28233838 0-11.49987414-2.66200818-15.54612589-8.09250349-4.15273233-5.32401553-6.17585779-15.22668494-6.17585779-29.49504702 0-12.99059829 2.12960605-22.14790522 6.28233838-27.47192075 4.15273233-5.32401553 9.26378751-8.09250348 15.4396453-8.09250348 6.38881897 0 11.60635391 2.66200818 15.75908624 8.09250348 4.15273233 5.32401553 6.17585779 15.12020435 6.17585861 29.38856643 0 13.09707889-2.12960605 22.36086557-6.28233838 27.68488193-4.25921292 5.43049612-9.47674787 7.98602371-15.65260647 7.9860229z m-300.27448252-49.08742383c7.77306253-11.07395261 17.46277158-16.6109285 28.9626449-16.61092932s21.08310178 5.53697589 28.85616514 16.61092932c1.59720474 2.23608664 2.98144912 5.00457458 4.25921291 8.09250347-27.36544015 3.51385043-50.79110916 17.46277158-72.93901437 33.86073972 1.59720474-19.91181858 5.11105518-33.86073972 10.86099142-41.95324319z m-151.20204428 143.0030602h81.13799844v23.85158973h-101.1562976l-13.94892032-74.11029758c9.15730691 5.11105518 17.78221252 8.73138537 26.08767636 11.1804332l7.87954312 39.07827465z m0 0M430.69760215 403.37941727c0 33.32833759 4.25921292 56.22160529 12.8841177 68.67980145 6.81473968 9.68970822 15.9720466 14.58780305 27.47192074 14.58780304 11.60635391 0 21.40254273-5.53697589 29.17560609-16.50444873s11.7128345-33.22185782 11.7128345-66.656676c0-26.5135979-2.449047-45.99949493-7.45362159-58.45769192 4.25921292-0.5324013 8.62490561-0.85184226 13.09707806-0.85184226 4.25921292 0 8.30546467 0.21296035 12.3517164 0.53240131l0.31944095 0.95832285c4.89809399 14.69428281 7.34714182 33.86073972 7.34714182 57.71233026 0 20.12477893-1.49072415 36.20330613-4.57865386 48.02262121-3.08792889 11.92579486-7.24066123 21.93494485-12.56467677 30.24040869-5.32401553 8.30546467-12.13875604 14.58780305-20.33774011 18.95349573-8.19898406 4.36569268-17.78221252 6.60177933-28.74968454 6.60177933-14.8007634 0-27.04599921-3.93977197-36.84218801-11.92579486-9.79618882-7.98602371-17.14333063-19.27293667-22.04142463-33.86073972-4.89809399-14.69428281-7.45362158-33.96721948-7.45362158-58.03177038v-3.93977198c8.73138537-6.92122028 17.46277158-13.94892114 26.5135979-20.65718023-0.5324013 7.34714182-0.85184226 15.54612589-0.85184307 24.59695221z m311.98731701 106.48031232h-20.23125952l-41.63380225-80.28615537c7.87954312 3.83329138 15.9720466 6.60177933 24.49047245 7.98602289l37.37458932 72.30013248z m-132.03558819-107.54511576c12.3517164 0 22.78678711 4.68513364 31.30521212 13.94892115 8.41194442 9.26378751 12.67115735 22.57382676 12.67115735 39.71715655 0 17.67573193-4.15273233 30.98577118-12.56467676 40.1430781-8.41194442 9.15730691-18.95349573 13.6294802-31.73113366 13.62948019-13.84244055 0-24.49047162-5.11105518-31.73113284-15.22668494-7.34714182-10.22211035-10.96747202-22.46734616-10.96747202-37.0551492 0-18.52757419 4.04625173-32.26353498 12.24523581-41.42084106 8.30546467-9.15730691 18.52757419-13.73596079 30.77281-13.73596079z m-15.01372377 82.30928165c4.15273233 5.32401553 9.26378751 8.09250348 15.4396453 8.0925043 6.17585779 0 11.39339355-2.66200818 15.54612589-7.98602371 4.15273233-5.32401553 6.28233838-14.58780305 6.28233838-27.6848811 0-14.26836209-2.02312628-24.06455091-6.17585862-29.38856644s-9.26378751-8.09250348-15.54612506-8.0925043c-6.06937803 0-11.1804332 2.66200818-15.43964529 7.98602371-4.15273233 5.32401553-6.28233838 14.48132244-6.28233921 27.47192074 0 14.37484186 2.02312628 24.17103067 6.17585861 29.6015268z m0 0"  horiz-adv-x="1024" />

    
    <glyph glyph-name="sangjitu" unicode="&#59507;" d="M955 797h-32c-2.8 0-5-2.2-5-5v-62c-173 7.8-345-33.2-494.3-118.4-36.4-22.1-74.2-42-113.2-59.6-57.6 53.2-127.9 91.5-204.4 112.1V792c0 2.8-2.2 5-5 5H69c-2.8 0-5-2.2-5-5v-816c0-2.8 2.2-5 5-5h32c2.8 0 5 2.2 5 5v64.3c146.4 13.8 288.5 55.9 417.7 123.8 39.1 20.8 79.4 39.5 120.7 56 85.9-41.2 178.4-68.2 273.5-79.9V-24c0-2.8 2.2-5 5-5H955c2.8 0 5 2.2 5 5V792c0 2.8-2.2 5-5 5zM106 601.6c51-16.2 98.5-41.9 139.4-75.9C200.1 509 153.5 496.1 106 487V601.6z m327-282c-101.5-52.9-212.5-86.7-327-99.7v206c66.3 11.7 131.1 30.3 193.2 55.7 20-17.9 40.7-37.5 62.5-59.6 29.6-32.3 61.8-62.4 96.3-90l-25-12.4z m86.4 42.3c-40.2 29.4-77.5 62.3-111.3 98.3-16.3 17.3-31.9 33.4-47.5 47.7 33 15.5 65.1 32.6 96.3 51.3C596.4 637.9 756.7 675.9 918 669.3v-208.2c-138.5-6-274.4-39.7-398.6-99.2z m208.8-113.8c61.6 18.9 125.3 30.3 189.7 34v-82.5c-65.1 8-128.9 24.3-189.7 48.5z"  horiz-adv-x="1024" />

    
    <glyph glyph-name="relitu" unicode="&#59508;" d="M102.4-25.6V793.6h819.2v-819.2H102.4z m261.2736 255.9488H204.8v-158.9248h158.976V230.4l-0.1024-0.0512z m460.8 0H665.6v-158.9248h158.976V230.4l-0.1024-0.0512zM363.776 460.8H204.8v-158.8736h158.976V460.8z m230.2976 0H435.2v-158.8736h158.7968v158.8224l0.0768 0.0512z m0 230.3488H435.2v-158.8736h158.7968V691.2l0.0768-0.0512z m230.4 0H665.6v-158.8736h158.976V691.2l-0.1024-0.0512zM824.4736 460.7488H665.6v-158.8736h158.976V460.8zM594.0736 230.3488H435.2v-158.8736h158.976V230.4zM363.6736 691.1488H204.8v-158.8736h158.976V691.2z"  horiz-adv-x="1024" />

    
    <glyph glyph-name="bianjishenqing" unicode="&#59503;" d="M322 599h380v-60H322zM322 489h380v-60H322zM322 379h240v-60H322zM192 734v-700h300v60H252V674h520v-175h60V734zM590.024 115.046l190 329.08 51.96-30-190-329.08zM634.135 70.962l-51.962 30L558.154 34h40z"  horiz-adv-x="1024" />

    
    <glyph glyph-name="erji" unicode="&#59499;" d="M863.215636 430.004777l-47.664486 0c-18.735458 159.054529-146.074758 282.995329-298.434921 282.995329-152.142189 0-279.709697-124.059504-298.456411-282.995329l-47.671649 0c-55.776566 0-101.179453-48.131207-101.179453-107.290585l0-117.445876c0-59.160401 45.401863-107.291608 101.179453-107.291608l73.250236 0c7.426437 0 14.52438 2.949168 19.765969 8.190543 5.241589 5.241374 8.189855 12.366655 8.189855 19.765159l-0.02763 79.334883 0.00614 47.192835c0.008187 0.276293 0.02149 0.549515 0.02149 0.827855 0 1.610684 0 136.747477 0.02763 140.65139C274.406707 539.042145 384.267222 657.088702 517.116229 657.088702c133.395475 0 243.25599-118.565373 244.89437-264.267802 0.023537-3.662413 0.026607-114.296139 0.026607-135.901203l0-130.986263c0-15.451924 12.504291-27.955702 27.955824-27.955702l73.222605 0c55.804197 0 101.207083 48.130184 101.207083 107.291608L964.422719 322.714192C964.423742 381.87357 919.020856 430.004777 863.215636 430.004777zM170.988169 153.890158c-24.953321 0-45.265758 23.041786-45.265758 51.379181L125.722411 322.714192c0 28.337395 20.312437 51.378158 45.265758 51.378158l45.293388 0-0.02763-51.378158 0.02763-168.824033L170.988169 153.890158zM908.510047 205.269339c0-28.337395-20.312437-51.379181-45.294411-51.379181l-45.264734 0L817.950901 374.092349l45.264734 0c24.981974 0 45.294411-23.040762 45.294411-51.378158L908.510047 205.269339z"  horiz-adv-x="1024" />

    
    <glyph glyph-name="shuju5" unicode="&#59500;" d="M511.2 781.5c48.6 0 95.7-4.1 139.8-12.2 41.8-7.6 79-18.5 110.7-32.1 28.7-12.4 51.6-26.8 66-41.6 7.2-7.4 15.8-18.4 15.8-29.4s-8.6-22-15.8-29.4c-14.5-14.8-37.3-29.2-66-41.6-31.6-13.7-68.9-24.5-110.7-32.1-44.2-8.1-91.2-12.2-139.8-12.2s-95.7 4.1-139.8 12.2c-41.8 7.6-79 18.5-110.7 32.1-28.7 12.4-51.6 26.8-66 41.6-7.2 7.4-15.8 18.4-15.8 29.4s8.6 22 15.8 29.4c14.5 14.8 37.3 29.2 66 41.6 31.6 13.7 68.9 24.5 110.7 32.1 44.2 8.1 91.2 12.2 139.8 12.2m0 50c-211.2 0-382.3-74-382.3-165.3S300.1 501 511.2 501s382.3 74 382.3 165.3S722.4 831.5 511.2 831.5zM512.4 309.5c-98.5 0-191.5 15.3-261.8 43.2-35.7 14.2-64.1 31-84.4 50-23.5 22-36 47.4-36 73.3h50c0-26.1 33.2-54.8 88.8-76.8 64.6-25.6 151-39.7 243.4-39.7s178.8 14.1 243.4 39.7c55.6 22 88.8 50.7 88.8 76.8h50c0-25.9-12.4-51.3-36-73.3-20.3-19-48.7-35.8-84.4-50-70.3-27.9-163.3-43.2-261.8-43.2zM511.7 120.6c-98.4 0-191.3 13.9-261.5 39.1-35.7 12.8-64.1 28.1-84.4 45.3-30.5 25.9-37 51.8-37 69h50.1c0-17.2 23.2-43.9 88.2-67.3 64.9-23.3 151.8-36.1 244.6-36.1 92.8 0 179.6 12.8 244.6 36.1 65.1 23.3 88.2 50.1 88.2 67.3h50.1c0-17.2-6.4-43.1-37-69-20.3-17.2-48.7-32.5-84.4-45.3-70.2-25.2-163.1-39.1-261.5-39.1zM511.7-57.2c-98.4 0-191.2 13.7-261.5 38.7-35.7 12.7-64.1 27.8-84.4 44.9-30.6 25.7-37 51.5-37 68.7h50c0-16.9 23.2-43.3 88.2-66.4 65-23.1 151.9-35.8 244.7-35.8 92.8 0 179.7 12.7 244.7 35.8 65 23.1 88.2 49.5 88.2 66.4h50c0-17.1-6.4-42.9-37-68.7-20.3-17.1-48.7-32.2-84.4-44.9-70.3-25-163.1-38.7-261.5-38.7zM159.6 73H153c-13.4 0-24.3 10.9-24.3 24.3V660.7c0 13.4 10.9 24.3 24.3 24.3h6.6c10.5 0 19.1-8.6 19.1-19.1v-573.8c0-10.5-8.6-19.1-19.1-19.1zM875.5 70.7h-6.6c-13.4 0-24.3 10.9-24.3 24.3V657.4c0 13.4 10.9 24.3 24.3 24.3h6.6c10.5 0 19.1-8.6 19.1-19.1v-572.8c0-10.5-8.6-19.1-19.1-19.1zM758.5 503c-17.4 0-31.5-14.1-31.5-31.5s14.1-31.5 31.5-31.5 31.5 14.1 31.5 31.5-14.1 31.5-31.5 31.5zM758.5 313c-17.4 0-31.5-14.1-31.5-31.5s14.1-31.5 31.5-31.5 31.5 14.1 31.5 31.5-14.1 31.5-31.5 31.5zM758.5 125c-17.4 0-31.5-14.1-31.5-31.5s14.1-31.5 31.5-31.5 31.5 14.1 31.5 31.5-14.1 31.5-31.5 31.5z"  horiz-adv-x="1024" />

    
    <glyph glyph-name="webhook" unicode="&#59702;" d="M446.293333 85.333333C384-2.986667 262.4-25.173333 174.506667 36.266667c-87.466667 61.44-107.946667 183.893333-46.506667 273.066666a195.626667 195.626667 0 0 0 152.746667 84.48l2.133333-61.013333c-38.826667-2.986667-76.373333-23.04-100.693333-58.026667-42.666667-61.44-29.44-144.213333 29.013333-185.6 58.88-40.96 141.226667-25.173333 183.893333 35.84 13.226667 19.2 20.906667 40.106667 23.893334 61.44v43.093334l238.08 1.706666 2.986666 4.693334c22.613333 39.253333 71.68 52.906667 110.08 30.72a81.066667 81.066667 0 0 0 29.013334-110.933334c-22.613333-38.826667-72.106667-52.48-110.506667-30.293333-17.493333 9.813333-29.866667 25.6-35.413333 43.52l-173.653334-0.853333a211.626667 211.626667 0 0 0-33.28-82.773334m310.613334 304.64c107.946667-13.226667 184.746667-110.08 171.52-216.32-13.226667-106.666667-111.36-182.186667-219.306667-168.96a197.504 197.504 0 0 0-146.346667 94.293334l52.906667 30.72a137.386667 137.386667 0 0 1 98.986667-61.866667c74.666667-8.96 140.8 41.813333 149.76 113.066667 8.96 71.253333-43.946667 136.533333-117.76 145.493333-23.04 2.56-45.226667-0.426667-65.28-7.68l-36.266667-18.773333-110.08 203.52h-9.386667a81.322667 81.322667 0 0 0-78.933333 83.2c1.28 44.373333 39.68 78.933333 84.48 77.226666 44.8-2.56 80.213333-38.826667 78.933333-83.2-0.853333-18.773333-8.106667-35.84-19.626666-49.066666l81.066666-149.76c26.453333 8.533333 55.466667 11.52 85.333334 8.106666M352 506.026667c-42.666667 100.266667 2.56 215.04 101.12 256.853333 98.986667 41.813333 213.333333-5.546667 256-105.813333 25.173333-58.453333 20.053333-122.453333-8.533333-173.653334l-52.906667 30.72c17.92 34.56 20.906667 76.8 3.84 116.48-29.013333 68.266667-106.24 101.12-172.373333 73.386667-66.56-28.16-96.426667-106.666667-67.413334-174.933333 11.946667-28.16 32-49.92 56.32-64.426667l16.64-8.96-130.986666-212.906667c1.28-2.133333 2.986667-4.693333 4.266666-8.106666 20.906667-38.826667 6.4-87.893333-32.853333-108.8-38.826667-20.906667-87.893333-5.546667-109.226667 34.56-20.906667 39.68-6.4 88.746667 32.853334 109.653333 16.64 8.96 34.986667 11.093333 52.48 7.253333l98.56 160.853334c-20.053333 18.346667-37.12 41.386667-47.786667 67.84z"  horiz-adv-x="1024" />

    
    <glyph glyph-name="zhankai3" unicode="&#59497;" d="M70.4 742.4c0 45.9264 37.2736 83.2 83.2 83.2h716.8c45.9264 0 83.2-37.2736 83.2-83.2v-716.8c0-45.9264-37.2736-83.2-83.2-83.2H153.6A83.2 83.2 0 0 0 70.4 25.6V742.4z m64 0v-716.8c0-10.5984 8.6016-19.2 19.2-19.2h716.8a19.2 19.2 0 0 1 19.2 19.2V742.4A19.2 19.2 0 0 1 870.4 761.6H153.6A19.2 19.2 0 0 1 134.4 742.4zM307.2 352a32 32 0 1 0 0 64h409.6a32 32 0 1 0 0-64H307.2zM480 588.8a32 32 0 1 0 64 0v-409.6a32 32 0 1 0-64 0V588.8z"  horiz-adv-x="1024" />

    
    <glyph glyph-name="zhankai4" unicode="&#59498;" d="M896-81.454545H128C83.083636-81.454545 46.545455-44.916364 46.545455 0V768C46.545455 812.916364 83.083636 849.454545 128 849.454545h768c44.916364 0 81.454545-36.538182 81.454545-81.454545v-768c0-44.916364-36.538182-81.454545-81.454545-81.454545zM128 779.636364a11.636364 11.636364 0 0 1-11.636364-11.636364v-768c0-6.423273 5.213091-11.636364 11.636364-11.636364h768a11.636364 11.636364 0 0 1 11.636364 11.636364V768a11.636364 11.636364 0 0 1-11.636364 11.636364H128zM762.181818 384a34.909091 34.909091 0 0 1-34.909091 34.909091h-430.545454a34.909091 34.909091 0 0 1 0-69.818182h430.545454a34.909091 34.909091 0 0 1 34.909091 34.909091z"  horiz-adv-x="1024" />

    
    <glyph glyph-name="rizhi1" unicode="&#59496;" d="M892.06 726.7 206.26 726.7c-9.1 0-16.6-7.3-16.6-16.3l0-671.6c0-9 7.4-16.3 16.6-16.3l682.4 0c10.9 0 20 7.7 20 18L908.66 710.4C908.56 719.4 901.16 726.7 892.06 726.7zM853.96 77.5 241.86 77.5 241.86 669.9l612.1 0L853.96 77.5 853.96 77.5zM397.46 583.9 325.16 583.9l0-70.6 72.3 0L397.46 583.9 397.46 583.9zM397.46 406.5 325.16 406.5l0-70.6 72.3 0L397.46 406.5 397.46 406.5zM397.46 228.6l-71.7 0 0-70 71.8 0L397.46 228.6 397.46 228.6zM469.06 559.2l307.6 0 0-47.8L469.06 511.4 469.06 559.2zM469.06 381.8l307.6 0 0-47.8L469.06 334 469.06 381.8zM469.06 207.6l307.6 0 0-47.8L469.06 159.8 469.06 207.6z"  horiz-adv-x="1099" />

    
    <glyph glyph-name="biaoge5" unicode="&#59494;" d="M31.79346513 903.45653486m28.33678612 0l2125.25894793 0q28.33678613 0 28.33678615-28.33678612l0-935.11393786q0-28.33678613-28.33678615-28.33678467l-2125.25894793 0q-28.33678613 0-28.33678612 28.33678467l0 935.11393786q0 28.33678613 28.33678612 28.33678612ZM31.79346513 761.77260569h2181.9325202V903.45653486H31.79346513zM31.79346513 761.77260569h2181.9325202v-14.16839307H31.79346513zM173.47739431 903.45653486h14.16839307v-991.78750865h-14.16839307z"  horiz-adv-x="2252" />

    
    <glyph glyph-name="anniu1" unicode="&#59495;" d="M39.67616523 941.65716809m355.05158397 0l1477.0145885 0q355.05158397 0 355.05158397-355.05158397l0-284.04126744q0-355.05158397-355.05158397-355.05158259l-1477.0145885 0q-355.05158397 0-355.05158397 355.05158259l0 284.04126744q0 355.05158397 355.05158397 355.05158397ZM39.67616523 941.65716809m355.05158397 0l1477.0145885 0q355.05158397 0 355.05158397-355.05158397l0-284.04126744q0-355.05158397-355.05158397-355.05158259l-1477.0145885 0q-355.05158397 0-355.05158397 355.05158259l0 284.04126744q0 355.05158397 355.05158397 355.05158397ZM39.67616523 884.84891405m355.05158397 0l1477.0145885 0q355.05158397 0 355.05158397-355.05158259l0-284.04126745q0-355.05158397-355.05158397-355.05158394l-1477.0145885 0q-355.05158397 0-355.05158397 355.05158394l0 284.04126745q0 355.05158397 355.05158397 355.05158259Z"  horiz-adv-x="2252" />

    
    <glyph glyph-name="Iconhomebeifen" unicode="&#59493;" d=""  horiz-adv-x="1024" />

    
    <glyph glyph-name="zuzhizhankai" unicode="&#60377;" d="M832 96H256a32 32 0 0 0-32 32V704a32 32 0 0 0 64 0v-544h544a32 32 0 1 0 0-64z"  horiz-adv-x="1024" />

    
    <glyph glyph-name="shousuo" unicode="&#59491;" d="M576.35271147 641.4563552l64.3527104-64.39822187 209.21457813 209.21457814a22.7555552 22.7555552 0 0 0 32.1763552 0l32.17635627-32.17635627a22.7555552 22.7555552 0 0 0 0-32.1763552l-209.21457814-209.21457813 64.39822187-64.3527104a22.7555552 22.7555552 0 0 0-16.11093333-38.82097814h-193.05813334a22.7555552 22.7555552 0 0 0-22.7555552 22.7555552V625.34542187a22.7555552 22.7555552 0 0 0 38.82097814 16.11093333z m-321.76355627-321.80906667a22.7555552 22.7555552 0 0 0 16.06542293 38.82097814h193.05813334a22.7555552 22.7555552 0 0 0 22.7555552-22.7555552v-193.05813334a22.7555552 22.7555552 0 0 0-38.82097814-16.11093333L383.2035552 190.89635520000002 174.08-18.318221870000002a22.7555552 22.7555552 0 0 0-28.99057813-2.6396448l-3.18577707 2.6396448-32.17635627 32.1763552a22.7555552 22.7555552 0 0 0 0 32.1763552l209.16906667 209.16906667z"  horiz-adv-x="1024" />

    
    <glyph glyph-name="zhankai1" unicode="&#59492;" d="M662.869333 715.8613330000001l60.330667-60.288-196.096-196.138666a21.333333 21.333333 0 0 1 0-30.165334l30.165333-30.165333a21.333333 21.333333 0 0 1 30.165334 0l196.138666 196.096 60.288-60.330667a21.333333 21.333333 0 0 1 36.437334 15.061334V730.965333a21.333333 21.333333 0 0 1-21.333334 21.333334h-181.034666a21.333333 21.333333 0 0 1-15.061334-36.437334zM180.138667 233.13066700000002a21.333333 21.333333 0 0 1-36.437334-15.061334v-181.034666a21.333333 21.333333 0 0 1 21.333334-21.333334h181.034666a21.333333 21.333333 0 0 1 15.061334 36.437334L300.8 112.42666699999995l196.096 196.138666a21.333333 21.333333 0 0 1 0 30.165334l-30.165333 30.165333a21.333333 21.333333 0 0 1-30.165334 0L240.426667 172.79999999999995z"  horiz-adv-x="1024" />

    
    <glyph glyph-name="caozuorizhi3" unicode="&#59490;" d="M848.364 711.583h-71.016v58.306c0 34.994-28.482 63.478-63.478 63.478H146.566c-34.995 0-63.478-28.484-63.478-63.478v-649.443c0-34.995 28.483-63.478 63.478-63.478h71.002v-58.306c0-34.995 28.483-63.478 63.478-63.478h567.318c35.008 0 63.478 28.482 63.478 63.478V648.105c0 34.994-28.47 63.478-63.478 63.478zM146.566 113.00400000000002c-4.104 0-7.443 3.338-7.443 7.443V769.889c0 4.104 3.338 7.443 7.443 7.443h567.305c4.104 0 7.443-3.338 7.443-7.443v-58.306H281.045c-34.994 0-63.478-28.483-63.478-63.478v-535.1h-71z m709.24-114.342c0-4.104-3.338-7.443-7.441-7.443h-567.32c-4.103 0-7.442 3.338-7.442 7.443V648.105c0 4.104 3.338 7.443 7.442 7.443h567.319c4.103 0 7.441-3.338 7.441-7.443v-649.443zM572.92 219.41099999999994H413.008c-15.473 0-28.018-12.53-28.018-28.017s12.545-28.018 28.018-28.018H572.92c15.473 0 28.018 12.532 28.018 28.018s-12.545 28.017-28.018 28.017z m146.272 151.58H413.008c-15.473 0-28.018-12.53-28.018-28.017s12.545-28.018 28.018-28.018h306.184c15.473 0 28.018 12.532 28.018 28.018s-12.545 28.018-28.018 28.018z m0 146.027H413.008c-15.473 0-28.018-12.531-28.018-28.018s12.545-28.017 28.018-28.017h306.184c15.473 0 28.018 12.531 28.018 28.017s-12.545 28.018-28.018 28.018z"  horiz-adv-x="1024" />

    
    <glyph glyph-name="biaoge4" unicode="&#59489;" d="M959.825 511.998V704.06c0 70.692-57.308 128-128 128H191.94c-70.692 0-128-57.308-128-128v-639.885c0-70.692 57.308-128 128-128h639.885c70.692 0 128 57.308 128 128V511.998z m-813.16 237.337a63.738 63.738 0 0 0 45.336 18.785H832a63.962 63.962 0 0 0 63.886-64.121v-128.061H127.88v128.06a63.738 63.738 0 0 0 18.785 45.337z m269.127-461.308v223.97h192.181v-223.97H415.792z m192.181-63.94v-223.972H415.792V224.086h192.181z m-256.121 63.94H127.88v223.97h223.972v-223.97zM146.665 18.79a63.467 63.467 0 0 0-18.785 45.21V224.086h223.972v-223.97h-159.85a63.626 63.626 0 0 0-45.337 18.675z m749.22 45.21a63.763 63.763 0 0 0-63.886-63.886H671.914V224.086h223.97v-160.085z m0 224.026H671.914v223.97h223.97v-223.97z"  horiz-adv-x="1024" />

    
    <glyph glyph-name="table1" unicode="&#59487;" d="M856.576 537.2416000000001c0 0.768 0 1.536-0.3072 2.304s0 0.4608 0 0.6656-0.4096 1.792-0.6656 2.6112 0 0 0 0.3072c0 0.8704-0.5632 1.6896-0.8704 2.56-0.3072 0.8192-0.6656 1.536-1.024 2.304v0.4608c-0.3584 0.6656-0.768 1.28-1.1264 1.8944l-0.4096 0.6656-1.2288 1.6896a8.7552 8.7552 0 0 1-0.5632 0.7168 19.5072 19.5072 0 0 1-1.6896 1.8432l-0.3072 0.4096-231.8848 231.4752-0.3584 0.3072c-0.5632 0.6144-1.2288 1.1776-1.8432 1.7408l-0.6656 0.4608-1.792 1.3312-0.5632 0.3072a21.0432 21.0432 0 0 1-1.9968 1.2288h-0.4096c-0.768 0.3584-1.536 0.768-2.304 1.0752a22.528 22.528 0 0 1-2.6112 0.9216 24.4224 24.4224 0 0 1-2.6112 0.6656h-0.7168l-2.2528 0.3584H259.4304a92.16 92.16 0 0 1-92.16-92.16v-620.1856a92.16 92.16 0 0 1 92.16-92.16h505.1392a92.16 92.16 0 0 1 92.16 92.16V534.1696q0 1.536-0.1536 3.072zM625.5104 691.2l126.3616-126.3616h-126.3616z m139.0592-638.7712H259.4304a30.72 30.72 0 0 0-30.72 30.72V704a30.72 30.72 0 0 0 30.72 30.72h304.64v-200.5504a30.72 30.72 0 0 1 30.72-30.72h200.4992v-420.2496a30.72 30.72 0 0 0-30.72-30.72zM673.28 331.1104h-322.56a30.72 30.72 0 0 1 0-61.44h322.56a30.72 30.72 0 0 1 0 61.44zM350.72 401.0496h154.4704a30.72 30.72 0 0 1 0 61.44H350.72a30.72 30.72 0 0 1 0-61.44zM673.28 199.67999999999995h-322.56a30.72 30.72 0 0 1 0-61.44h322.56a30.72 30.72 0 0 1 0 61.44z"  horiz-adv-x="1024" />

    
    <glyph glyph-name="biaoge3" unicode="&#59488;" d="M113.275817 896h798.786928c11.879739 0 22.755556-5.688889 30.619608-14.891503 7.864052-9.202614 12.71634-21.751634 12.71634-35.806536v-815.351634h26.603921c11.043137 0 21.416993-5.019608 28.946406-13.218301l1.673202-1.673202c7.696732-9.202614 12.71634-21.751634 12.71634-35.806536v-53.542484c0-14.054902-4.852288-26.603922-12.71634-35.806536-7.864052-9.202614-18.572549-14.891503-30.619608-14.891503h-938.666666c-11.879739 0-22.755556 5.688889-30.619608 14.891503-7.864052 9.202614-12.71634 21.751634-12.71634 35.806536v53.542484c0 13.887582 4.852288 26.603922 12.71634 35.806536 7.864052 9.202614 18.739869 15.058824 30.452287 15.058823h26.436602V845.134641c0 13.887582 4.852288 26.603922 12.71634 35.806535C90.352941 890.311111 101.228758 896 113.275817 896z m0 0M113.275817 846.473203c-0.334641 0-0.669281-0.16732-0.836601-0.334641-0.16732-0.334641-0.334641-0.669281-0.334641-1.003921v-815.351634h801.296732V845.134641c0 0.334641-0.16732 0.669281-0.33464 1.003921-0.16732 0.334641-0.501961 0.334641-0.836602 0.334641M768.669281-25.43268v5.856209h-30.452288M982.839216-19.911111l-0.167321 0.33464c-0.16732 0.16732-0.501961 0.16732-0.669281 0.167321H643.346405c-8.031373-12.381699-20.413072-20.413072-34.635294-20.413072H416.627451c-14.222222 0-26.603922 8.198693-34.635294 20.413072H43.335948c-0.334641 0-0.669281-0.16732-0.836602-0.334641v-0.16732c-0.16732-0.334641-0.334641-0.669281-0.33464-1.003922v-53.542483c0-0.334641 0.16732-0.669281 0.33464-1.003922 0.16732-0.334641 0.501961-0.334641 0.836602-0.33464H982.169935c0.334641 0 0.501961 0.16732 0.836601 0.33464 0.16732 0.334641 0.334641 0.669281 0.33464 1.003922v53.542483c0 0.501961-0.16732 0.669281-0.50196 1.003922z m0 0M634.478431 559.853595H228.726797v-40.491503h162.300654v-162.300654h-162.300654v-40.491503h162.300654v-162.300654h-162.300654V722.154248h568.052288v-162.300653h-162.300654z m162.300654-202.792157h-162.300654v162.300654h162.300654v-162.300654zM593.819608 154.101961h-162.300654v162.300653h162.300654v-162.300653z m0 202.959477h-162.300654v162.300654h162.300654v-162.300654z m40.658823-40.658824h162.300654v-162.300653h-162.300654v162.300653z m0 0M640.16732 311.383007h156.611765v-157.281046h-156.611765zM228.726797 722.154248h568.052288v-162.300653H228.726797z"  horiz-adv-x="1026" />

    
    <glyph glyph-name="anniu" unicode="&#59486;" d="M346.29910124 376.63551545999997c-3.68224161 7.36448454-7.36448454 11.04672615-14.72896908 18.41121069-3.68224161 3.68224161-11.04672615 7.36448454-14.72896906 11.04672745 3.68224161 3.68224161 7.36448454 3.68224161 7.36448454 7.36448453 3.68224161 3.68224161 3.68224161 7.36448454 7.36448452 11.04672615 0 3.68224161 3.68224161 7.36448454 3.68224292 14.72896907v14.72896777c0 11.04672615-3.68224161 22.0934536-7.36448453 33.14017977-3.68224161 11.04672615-11.04672615 18.41121069-14.72896907 25.7756965-7.36448454 7.36448454-14.72896907 11.04672615-22.0934536 14.72896777C283.70098334 531.28968807 272.65425719 531.28968807 265.28977266 531.28968807H180.59820247v-290.89713323h92.05605472c11.04672615 0 22.0934536 3.68224161 33.14017976 7.36448453 11.04672615 3.68224161 18.41121069 11.04672615 25.77569521 18.41121069 7.36448454 7.36448454 14.72896907 18.41121069 18.4112107 29.45793684 3.68224161 11.04672615 7.36448454 22.0934536 7.36448452 36.82242267 0 7.36448454 0 18.41121069-3.68224161 25.77569521-3.68224161 7.36448454-3.68224161 14.72896907-7.36448453 18.41121068z m-110.46726542 103.10278218h18.41121069c7.36448454 0 14.72896907-3.68224161 18.41121068-7.36448454 7.36448454-3.68224161 7.36448454-11.04672615 7.36448454-22.0934536s-3.68224161-18.41121069-7.36448454-22.09345359c-3.68224161-7.36448454-11.04672615-7.36448454-18.41121068-7.36448453h-18.41121069v58.91587626z m62.5981166-165.70089876c-3.68224161-3.68224161-3.68224161-7.36448454-7.36448454-11.04672746-3.68224161-3.68224161-7.36448454-3.68224161-11.04672615-7.36448452-3.68224161 0-7.36448454-3.68224161-14.72896907-3.68224163h-29.45793684v73.64484404h29.45793684c11.04672615 0 18.41121069-3.68224161 25.77569522-11.04672744 7.36448454-7.36448454 11.04672615-14.72896907 11.04672744-29.45793685 0 0-3.68224161-7.36448454-3.6822429-11.04672614z m486.05597013 106.7850225v-55.23363207c-7.36448454 7.36448454-11.04672615 18.41121069-18.41121068 29.45793684-7.36448454 11.04672615-14.72896907 18.41121069-22.0934536 25.77569523L659.28968807 531.28968807h-47.86914882v-290.89713323h58.91587498v184.11210944l22.09345361-33.14017974c7.36448454-11.04672615 14.72896907-22.0934536 25.77569521-33.14017976l95.73829634-125.19623449h29.45793814v294.57937487h-58.91587498V420.82242138zM953.86906294 715.4017975300001H70.13093706c-40.50466428 0-73.64484404-33.14017975-73.64484405-73.64484404v-515.51390698c0-40.50466428 33.14017975-73.64484404 73.64484405-73.64484404h883.73812588c40.50466428 0 73.64484404 33.14017975 73.64484405 73.64484404v515.51390698c0 40.50466428-33.14017975 73.64484404-73.64484405 73.64484404z m0-552.33632965c0-22.0934536-14.72896907-36.82242138-36.82242137-36.82242137h-810.09328314c-22.0934536 0-36.82242138 14.72896907-36.82242137 36.82242137V604.93453212c0 22.0934536 14.72896907 36.82242138 36.82242137 36.82242137h810.09328314c22.0934536 0 36.82242138-14.72896907 36.82242137-36.82242137v-441.86906424zM375.75703937 476.05605473h73.64484274v-235.66349989H512v235.66349989h73.64484404V531.28968807H375.75703937z"  horiz-adv-x="1024" />

    
    <glyph glyph-name="bianliang" unicode="&#59986;" d="M54.125 120.665h920.047v541.21H54.125v-541.21z m947.117-54.107H27.054C10.835 66.558 0 77.376 0 93.611V688.946C0 705.182 10.835 716 27.054 716h974.188c16.235 0 27.054-10.818 27.054-27.054v-595.335c0-16.235-10.818-27.053-27.054-27.053zM830.76 434.576c-16.235 5.418-27.055 8.126-37.889 8.126-18.944 0-35.18-8.126-45.998-21.652-8.128-8.126-10.834-16.236-10.834-32.472v-59.541c0-24.346 0-37.889 2.706-56.834h-78.469c2.71 18.945 2.71 32.488 2.71 56.834V445.395c0 27.07 0 40.597-2.71 56.833h75.763v-29.763c18.942 24.346 40.598 35.181 75.775 35.181 10.819 0 18.945 0 37.89-5.418l-18.944-67.652z m-284.132-62.25c-32.472 0-48.724-2.691-64.943-8.109-13.543-5.418-21.653-13.527-21.653-24.346 0-13.543 10.819-21.652 29.763-21.652 16.236 0 32.471 5.417 43.305 13.527 8.11 8.125 13.528 18.943 13.528 29.762v10.818z m0 56.833c0 18.944-10.834 27.07-35.18 27.07-24.362 0-37.889-8.126-43.306-27.07l-73.052 10.835c8.11 21.653 16.236 35.18 32.472 45.998 21.637 13.528 48.707 21.654 86.595 21.654 27.054 0 54.108-5.418 70.36-13.527 24.346-13.544 35.162-35.197 35.162-67.668v-102.814c0-24.362 0-37.889 2.71-54.124H549.32v16.235c-24.346-13.544-43.289-18.944-75.76-18.944-29.762 0-51.416 8.109-64.943 21.653-13.527 13.526-21.653 29.763-21.653 51.415 0 24.346 10.818 43.29 27.071 54.108 18.944 13.543 45.998 21.654 78.469 24.362 13.527 2.709 27.054 2.709 54.125 2.709v8.108z m-351.8 73.069c0-8.109 2.709-16.236 8.126-32.471l35.181-119.067s0-2.708 2.708-5.417c0-2.692 0-5.401 2.709-10.819 0 2.709 2.692 5.418 2.692 8.127v2.692c0 2.709 0 2.709 2.709 5.417l35.18 116.358c5.418 13.527 5.418 24.362 8.11 32.472h83.904c-8.127-16.236-10.835-24.346-16.236-37.873l-64.943-162.374c-5.417-16.235-8.126-21.652-10.835-32.471h-83.886c-2.709 10.818-2.709 16.235-10.819 32.471l-64.942 162.374c-2.709 5.401-8.126 16.219-16.236 37.873l86.578 2.708z"  horiz-adv-x="1028" />

    
    <glyph glyph-name="bianliang1" unicode="&#59485;" d="M832 810.666667A106.666667 106.666667 0 0 0 938.666667 704v-640a106.666667 106.666667 0 0 0-106.666667-106.666667h-640A106.666667 106.666667 0 0 0 85.333333 64v640A106.666667 106.666667 0 0 0 192 810.666667h640z m0-71.125334h-640a35.541333 35.541333 0 0 1-35.541333-35.541333v-640c0-19.626667 15.914667-35.541333 35.541333-35.541333h640c19.626667 0 35.541333 15.914667 35.541333 35.541333v640a35.541333 35.541333 0 0 1-35.541333 35.541333z m-284.458667-106.666666a35.541333 35.541333 0 1 0 0-71.082667H298.666667v-106.666667h177.834666a35.541333 35.541333 0 0 0 0-71.125333H298.624L298.666667 170.666667a35.541333 35.541333 0 1 0-71.125334 0V597.333333c0 19.626667 15.914667 35.541333 35.584 35.541334h284.416z m267.946667-229.845334a35.541333 35.541333 0 0 0 0-50.261333L740.053333 277.333333l75.434667-75.434666a35.541333 35.541333 0 0 0-50.304-50.261334l-75.392 75.392-75.434667-75.392a35.541333 35.541333 0 0 0-50.304 50.261334l75.434667 75.434666-75.434667 75.434667a35.541333 35.541333 0 0 0 50.304 50.261333l75.434667-75.392 75.392 75.392a35.541333 35.541333 0 0 0 50.304 0z"  horiz-adv-x="1024" />

    
    <glyph glyph-name="baobiaotongji" unicode="&#59477;" d="M922.625 52.125H157.625c-16.875 0-28.125 11.25-28.125 28.125V744c0 16.875-11.25 28.125-28.125 28.125s-28.125-11.25-28.125-28.125v-691.875c0-28.125 22.5-56.25 56.25-56.25h787.5c16.875 0 28.125 11.25 28.125 28.125s-11.25 28.125-22.5 28.125zM213.875 271.5h56.25c5.625 0 16.875 5.625 22.5 16.875l56.25 95.625 84.375-191.25 16.875-16.875c11.25-5.625 28.125 5.625 33.75 16.875l112.5 371.25 78.75-270c0-11.25 11.25-22.5 28.125-22.5h140.625c11.25-16.875 28.125-28.125 45-28.125 28.125 0 56.25 22.5 56.25 56.25s-22.5 56.25-56.25 56.25c-22.5 0-39.375-11.25-45-28.125H720.125L618.875 670.875c0 11.25-16.875 22.5-33.75 16.875-5.625 0-11.25-5.625-11.25-5.625s-5.625-5.625-5.625-11.25L450.125 282.75l-73.125 168.75c0 5.625-5.625 5.625-5.625 11.25-5.625 5.625-16.875 5.625-28.125 0-5.625 0-11.25-5.625-11.25-11.25l-78.75-123.75h-39.375c-16.875 0-28.125-11.25-28.125-28.125 0-11.25 11.25-28.125 28.125-28.125z"  horiz-adv-x="1024" />

    
    <glyph glyph-name="tijianxiangmu" unicode="&#59478;" d="M744.43994141-23.43896484000004H279.56005859c-102.88476563 0-186.57421875 83.71582031-186.57421875 186.56103515V486.46289063c0 102.88476563 83.70263672 186.58740234 186.57421875 186.58740234h464.87988282c102.88476563 0 186.57421875-83.71582031 186.57421875-186.58740235v-323.31445312c0.02636719-102.88476563-83.68945313-186.58740234-186.57421875-186.58740234zM279.56005859 620.63232422c-73.97314453 0-134.16943359-60.19628906-134.16943359-134.18261719v-323.32763672c0-73.97314453 60.19628906-134.15625 134.16943359-134.15625h464.87988282c73.97314453 0 134.16943359 60.19628906 134.16943359 134.15625V486.46289063c0 73.98632813-60.18310547 134.18261719-134.16943359 134.18261718l-464.87988282-0.01318359zM145.91796875 498.69726563H93.5c0 46.28759766-0.51416016 109.06787109-0.51416016 109.06787109 0 101.38183594 82.30517578 183.67382813 183.46289063 183.67382812h123.3984375c111.54638672 0 175.51318359-60.15673828 175.51318359-165.07177734H522.94238281c0 75.80566406-40.26269531 112.65380859-123.09521484 112.65380859h-123.3984375c-72.24609375 0-131.04492188-58.78564453-131.04492188-131.04492187-0.01318359 0 0.51416016-62.89892578 0.51416016-109.27880859zM507.43847656 70.74462890999996l-5.93261718 4.16601562c-152.86376953 107.34082031-230.81835938 204.87304688-238.08251954 298.41064453l-0.06591797 27.55371094c6.97412109 87.39404297 64.20410156 132.13916016 114.52587891 137.01708984 69.21386719 6.42041016 100.57763672-17.90332031 129.54199219-50.80957031 29.03027344 32.97216797 60.68408203 57.22998047 129.55517578 50.80957031 50.24267578-4.93066406 107.53857422-49.62304688 114.5390625-136.23925781l0.06591797-27.55371094c-7.42236328-94.22314453-85.28466797-191.83447266-238.24072266-299.17529297l-5.90625-4.17919921z m-107.3540039 447.70166015c-6.26220703 0-12.95947266-0.35595703-20.15771485-1.0546875-42.00292969-4.08691406-89.92529297-42.56982422-95.91064453-117.36035156l0.05273438-25.93212891c6.69726563-85.07373047 79.78710938-176.33056641 223.43554687-278.10791015 143.63525391 101.85644531 216.71191406 193.10009766 223.48828125 278.95166015l-0.07910156 25.9453125c-5.98535156 73.92041016-53.90771484 112.41650391-95.91064453 116.50341797-59.91943359 5.98535156-84.87597656-11.35107422-119.6015625-52.78710937l-7.89697266-9.43945313-7.96289062 9.43945313c-30.59912109 36.50537109-53.27490234 53.84179688-99.45703125 53.84179687zM507.45166016 54.62109375l-13.52636719 9.53173828c-156.37060547 109.79296875-236.06542969 210.60791016-243.6328125 308.16650391l-0.10546875 28.54248047c7.60693359 95.84472656 70.86181641 144.79541016 126.44384766 150.16113281a245.67626953 245.67626953 0 0 0 22.53076171 1.09423828c50.69091797 0 81.19775391-17.83740234 108.27685547-45.60205078 27.07910156 27.76464844 57.61230469 45.61523438 108.32958985 45.61523437 7.13232422 0 14.67333984-0.36914063 22.43847656-1.09423828 55.60839844-5.45800781 118.86328125-54.19775391 126.45703125-148.31542969l0.10546875-28.58203125c-7.76513672-99.23291016-87.52587891-200.28515625-243.85693359-309.99902343l-13.46044922-9.51855469z m-107.3671875 450.64160156c-5.77441406 0-11.95751953-0.32958984-18.89208985-1.00195312-36.703125-3.57275391-78.65332031-38.03466797-84.04541015-105.28417969l0.10546875-24.85107422c6.23583984-78.75878906 75.05419922-164.80810547 210.25195312-261.94482422 135.18457031 97.21582031 204.02929688 183.56835938 210.34423828 263.79052735l-0.11865234 24.8774414c-5.35253906 65.64111328-47.31591797 99.85253906-84.00585938 103.42529297-54.76464844 5.41845703-75.34423828-8.91210938-108.22412109-48.13330078l-17.95605469-21.47607422-18.08789062 21.44970703c-28.48974609 33.98730469-48.14648438 49.1484375-89.37158203 49.1484375zM489.53515625 166.22021484000004l-84.92871094 169.85742188-26.85498047-53.70996094-186.64013671 2.14892578 0.30322265 26.3671875 170.12109375-1.96435547 43.07080078 86.12841797 82.25244141-164.50488281 82.18652344 205.54541016 81.32958984-125.23095704 172.90283203-1.93798828-0.29003906-26.3671875-187.03564453 2.09619141-61.31689453 94.42089844z"  horiz-adv-x="1024" />

    
    <glyph glyph-name="wodezongjian" unicode="&#59479;" d="M489.53515625 308.56347656l-84.92871094 169.85742188-26.85498047-53.70996094-186.64013671 2.14892578 0.30322265 26.3671875 170.12109375-1.96435547 43.07080078 86.12841797 82.25244141-164.50488281 82.18652344 205.54541015 81.32958984-125.23095703 172.90283203-1.93798828-0.29003906-26.3671875-187.03564453 2.09619141-61.31689453 94.42089844zM490.53710937 284.45068359000004l-85.94384765 171.86132813-20.77734375-41.5546875-202.7109375 2.33349609 0.54052734 46.14257813 173.8256836-2.00390625 49.1352539 98.2836914 81.25048828-162.50097656 81.09228516 202.81640625 88.83105469-136.79296875 177.50390625-1.99072265-0.52734375-46.14257813-202.20996094 2.28076172-53.81542969 82.85888672-86.19433593-215.5913086z m-85.93066406 216.07910157l83.92675782-167.84033203 84.00585937 210.12011718 68.83154297-105.98291015 171.84814453-1.92480469 0.06591797 6.59179687-168.31494141 1.8984375-73.828125 113.66894532-83.28076172-208.27441407-83.25439453 166.49560547-36.97998047-73.98632812-166.44287109 1.92480469-0.07910156-6.59179688 170.56933594-1.96435547 32.93261718 65.86523438zM810.45019531 284.46386719a16.34765625 16.34765625 0 0 0-16.34765625-16.34765625h-123.29296875a16.34765625 16.34765625 0 0 0 0 32.70849609h123.29296875c9.01757813 0 16.34765625-7.31689453 16.34765625-16.36083984zM732.45605469 362.45800781c9.03076172 0 16.34765625-7.33007813 16.34765625-16.34765625v-123.29296875a16.34765625 16.34765625 0 0 0-32.7084961 0v123.29296875a16.34765625 16.34765625 0 0 0 16.36083985 16.34765625zM325.09619141 593.18408203a10.83691406 10.83691406 0 0 0-10.82373047-10.82373047h-81.60644531a10.82373047 10.82373047 0 0 0 0 21.64746094h81.60644531a10.81054688 10.81054688 0 0 0 10.82373047-10.82373047zM273.46923828 644.81103516c5.97216797 0 10.82373047-4.8515625 10.82373047-10.82373047v-81.60644532a10.83691406 10.83691406 0 0 0-21.66064453 0v81.60644532c0 5.98535156 4.8515625 10.82373047 10.83691406 10.82373047zM752.38964844 109.00341796999999H271.61035156C173.35302734 109.00341796999999 93.40771484 188.93554687000005 93.40771484 287.20605469V618.27246094C93.40771484 716.52978516 173.33984375 796.47509766 271.61035156 796.47509766h480.79248047c98.25732422 0 178.20263672-79.93212891 178.20263672-178.20263672v-331.06640625c-0.01318359-98.27050781-79.9453125-178.20263672-178.21582031-178.20263672zM271.61035156 743.72753906c-69.1875 0-125.46826172-56.28076172-125.46826172-125.46826172v-331.06640625c0-69.17431641 56.28076172-125.46826172 125.46826172-125.46826172h480.79248047c69.17431641 0 125.46826172 56.29394531 125.46826172 125.46826172V618.27246094c0 69.1875-56.29394531 125.46826172-125.46826172 125.46826172H271.61035156zM904.765625-28.461914060000026H119.234375a26.3671875 26.3671875 0 0 0 0 52.734375h785.53125a26.3671875 26.3671875 0 0 0 0-52.734375z"  horiz-adv-x="1024" />

    
    <glyph glyph-name="cuoqingdengji" unicode="&#59480;" d="M875.73333333 269.01333333l-80.53333333 80.53333334c-4.8 4.8-11.2 7.78666667-17.92 8.32-8.32 0.64-16.42666667-2.24-22.18666667-8.10666667L536.10666667 130.88c-4.90666667-4.90666667-7.68-11.41333333-7.78666667-18.34666667l-1.70666667-84.58666666c-0.10666667-7.25333333 2.66666667-14.18666667 7.78666667-19.41333334 5.01333333-5.01333333 11.84-7.78666667 18.88-7.78666666h0.42666667l84.8 1.49333333c6.93333333 0.10666667 13.54666667 2.88 18.34666666 7.78666667L875.73333333 228.90666667000005c11.09333333 10.98666667 11.09333333 29.01333333 0 40.10666666zM626.88 55.25333333000003l-46.4-0.85333333 0.96 46.18666667 193.6 193.6 45.44-45.44-193.6-193.49333334zM726.61333333 457.6c0 18.24-13.97333333 33.06666667-31.14666666 33.06666667H308.69333333c-17.17333333 0-31.14666667-14.82666667-31.14666666-33.06666667s13.97333333-33.06666667 31.14666666-33.06666667H695.46666667c16.96 0 30.93333333 14.82666667 31.14666666 33.06666667zM308.26666667 364.90666667000005c-17.17333333 0-31.14666667-14.82666667-31.14666667-33.06666667s13.97333333-33.06666667 31.14666667-33.06666667h152.64c17.06666667 0 31.04 14.82666667 31.14666666 33.06666667 0 18.24-13.97333333 33.06666667-31.14666666 33.06666667H308.26666667zM695.46666667 626.66666667H308.69333333c-17.17333333 0-31.14666667-14.82666667-31.14666666-33.06666667s13.97333333-33.06666667 31.14666666-33.06666667H695.46666667c17.06666667 0 31.04 14.82666667 31.14666666 33.06666667 0 18.24-13.97333333 33.06666667-31.14666666 33.06666667zM468.58666667 21.866666669999972H209.49333333s-0.10666667 0.10666667-0.10666666 0V748.16s0.10666667 0.10666667 0 0.10666667h604.69333333s0.10666667-0.10666667 0.10666667 0V368c0-17.70666667 14.29333333-32 32-32s32 14.29333333 32 32V748.26666667c0 35.30666667-28.69333333 64-64 64h-604.8c-35.30666667 0-64-28.69333333-64-64v-726.4c0-35.30666667 28.69333333-64 64-64h259.2c17.70666667 0 32 14.29333333 32 32s-14.29333333 32-32 32z"  horiz-adv-x="1024" />

    
    <glyph glyph-name="caiwuguanli" unicode="&#59481;" d="M628.058 285.117c15.618 0.329 28.109 13.078 28.109 28.699 0 15.623-12.491 28.377-28.109 28.701h-60.561l57.511 57.51c10.94 11.251 10.814 29.201-0.276 40.293-11.099 11.096-29.052 11.218-40.295 0.281l-71.132-71.125-71.11 71.125c-11.25 10.938-29.201 10.815-40.295-0.281-11.095-11.093-11.221-29.042-0.28-40.293l57.513-57.51h-60.586c-15.853 0-28.699-12.848-28.699-28.701 0-15.847 12.846-28.699 28.699-28.699h86.069v-57.348h-86.069c-15.853 0-28.708-12.853-28.708-28.706 0-15.852 12.855-28.705 28.708-28.705h86.069v-76.507c0-15.841 12.841-28.685 28.684-28.685 15.845 0 28.689 12.844 28.689 28.685v76.507h86.068a28.712 28.712 0 0 1 20.299 8.405 28.684 28.684 0 0 1 8.393 20.313 28.65 28.65 0 0 1-8.401 20.291 28.65 28.65 0 0 1-20.29 8.402H541.99v57.348h86.068z m0 0M942.081 214.1c-6.751 186.794-167.086 311.27-242.62 359.756 25.051 27.951 50.199 67.312 56.136 108.461 4.331 29.878-2.33 57.173-19.262 78.956-21.63 27.731-47.304 33.55-65.037 33.55-22.286 0-42.856-9.179-58.817-19.384-18.579 24.93-50.57 53.158-100.207 53.337-0.555 0-1.091 0-1.65-0.034-48.706-0.678-80.192-28.6-98.552-53.283-15.96 10.172-36.542 19.354-58.76 19.354-17.733 0-43.408-5.823-65.04-33.553-16.962-21.783-23.62-49.075-19.292-79.014 5.942-41.145 31.097-80.452 56.137-108.392C249.57 525.37 89.199 400.894 82.452 214.1c-3.333-92.366 18.761-163.851 65.628-212.471 56.764-58.811 132.366-65.171 162.201-65.171h403.956c29.883 0 105.474 6.346 162.234 65.194 46.883 48.62 68.977 120.081 65.61 212.448zM338.544 722.056c7.004 9.023 12.235 9.023 14.753 9.023 15.352 0 36.542-17.277 44.352-25.552a31.648 31.648 0 0 1 29.465-9.526 32.086 32.086 0 0 1 23.75 20.01c0.745 2 18.892 48.174 60.498 49.023 0.347-0.035 0.683-0.035 1.062-0.035 42.072-0.124 60.465-46.989 61.177-48.762a31.871 31.871 0 0 1 23.575-20.263 31.874 31.874 0 0 1 29.606 9.452c7.911 8.375 29.134 25.641 44.502 25.641 2.525 0 7.756 0 14.76-8.987 3.948-5.077 8.934-13.785 6.47-30.654-4.954-34.23-54.442-93.365-54.442-93.365l-251.367-0.159s-49.676 59.105-54.664 93.494c-2.452 16.873 2.522 25.594 6.503 30.66z m492.06-676.133c-39.805-41.268-94.639-45.718-116.355-45.718H310.29c-21.728 0-76.527 4.45-116.333 45.684-34.389 35.669-50.503 91.496-47.838 165.904 6.879 190.212 233.716 324.196 237.608 324.196h255.195c3.608 0 232.598-134.294 239.478-324.196 2.676-74.408-13.373-130.212-47.796-165.87z m0 0"  horiz-adv-x="1024" />

    
    <glyph glyph-name="tijianbaogao" unicode="&#59482;" d="M664.48 607.6600000000001H360.55a44.05 44.05 0 0 0-44 44v97.56a44.05 44.05 0 0 0 44 44h303.93a44.05 44.05 0 0 0 44-44v-97.56a44.05 44.05 0 0 0-44-44z m-283.93 64h263.93v57.56H380.55zM341.97 302.62m32 0l271.89 0q32 0 32-32l0 0q0-32-32-32l-271.89 0q-32 0-32 32l0 0q0 32 32 32ZM541.91 438.57m0-32l0-271.89q0-32-32-32l0 0q-32 0-32 32l0 271.89q0 32 32 32l0 0q32 0 32-32ZM883.1 502.38H143.41a44.05 44.05 0 0 0-44 44v81.7a44.05 44.05 0 0 0 44 44H883.1a44.05 44.05 0 0 0 44-44v-81.7a44.05 44.05 0 0 0-44-44z m-719.69 64H863.1v41.7H163.41zM812.05-31.799999999999955H211.39a44.05 44.05 0 0 0-44 44V522.4300000000001a44.05 44.05 0 0 0 44 44h600.66a44.05 44.05 0 0 0 44-44V12.200000000000045a44.05 44.05 0 0 0-44-44z m-580.66 64h560.66V502.43H231.39z"  horiz-adv-x="1024" />

    
    <glyph glyph-name="yixueyingxiangke" unicode="&#59483;" d="M518.997333 785.066667a437.930667 437.930667 0 0 1-306.005333-750.933334 25.6 25.6 0 0 1 35.84 36.693334 386.730667 386.730667 0 1 0 656.896 276.48 383.829333 383.829333 0 0 0-118.442667-278.528 25.429333 25.429333 0 0 1 0-36.181334 24.917333 24.917333 0 0 1 18.432-7.850666 25.6 25.6 0 0 1 17.066667 7.168A437.930667 437.930667 0 0 1 518.997333 785.066667zM265.557333 434.176a22.869333 22.869333 0 0 1 8.192-1.365333 25.6 25.6 0 0 1 24.234667 17.066666c29.184 86.528 119.466667 147.114667 220.842667 147.114667 96.597333 0 183.808-54.784 216.917333-136.533333a25.6 25.6 0 0 1 47.445333 19.285333c-40.789333 100.693333-147.114667 168.448-264.362666 168.448-124.416 0-232.618667-73.045333-269.312-181.930667a25.429333 25.429333 0 0 1 16.042666-32.085333zM827.733333 264.53333299999997v17.066667a68.266667 68.266667 0 0 1-68.266666 68.266667h-460.8a68.266667 68.266667 0 0 1-68.266667-68.266667v-17.066667a68.266667 68.266667 0 0 1 68.266667-68.266666H358.4v-200.533334a46.933333 46.933333 0 0 1 46.762667-46.933333h231.253333A46.933333 46.933333 0 0 1 682.666667-4.266666999999984V196.26666699999998h76.8a68.266667 68.266667 0 0 1 68.266666 68.266666zM631.466667 0H409.6v187.733333h221.866667zM281.6 264.53333299999997v17.066667a17.066667 17.066667 0 0 0 17.066667 17.066667h460.8a17.066667 17.066667 0 0 0 17.066666-17.066667v-17.066667a17.066667 17.066667 0 0 0-17.066666-17.066666h-460.8a17.066667 17.066667 0 0 0-17.066667 17.066666z"  horiz-adv-x="1024" />

    
    <glyph glyph-name="huayanke" unicode="&#59484;" d="M597.930667 531.0122670000001l-0.802134 2.542933-0.853333 3.6352a34.133333 34.133333 0 0 0-0.392533 3.003733l-0.136534 3.0208V741.8368a34.133333 34.133333 0 0 0 68.181334 2.56l0.085333-2.56v-188.893867l277.8624-425.130666 1.501867-2.525867c35.9936-66.986667-10.632533-148.4288-85.572267-151.074133l-3.754667-0.068267H169.949867c-75.861333 0-124.330667 80.3328-91.0848 147.780267l1.723733 3.362133 1.501867 2.5088L359.9872 552.96V742.9632a34.133333 34.133333 0 0 0 31.573333 34.048l2.56 0.085333a34.133333 34.133333 0 0 0 34.048-31.573333l0.085334-2.56v-199.8336a34.133333 34.133333 0 0 0-0.6656-6.690133l-0.7168-3.003734a34.133333 34.133333 0 0 0-2.6624-6.690133l-1.655467-2.816L140.288 92.04053299999998l-0.648533-1.365333c-9.728-21.6064 4.898133-46.4896 27.8528-48.1792l2.491733-0.085333h684.066133c24.3712 0 40.3968 25.873067 30.344534 48.247466l-0.682667 1.3824-282.2144 431.8208a34.133333 34.133333 0 0 0-3.549867 7.150934zM716.8 793.6a34.133333 34.133333 0 0 0 2.56-68.164267L716.8 725.333333H307.2a34.133333 34.133333 0 0 0-2.56 68.181334L307.2 793.6h409.6zM699.733333 196.26666699999998v-34.133334a34.133333 34.133333 0 0 0-34.133333-34.133333H358.4a34.133333 34.133333 0 0 0-34.133333 34.133333v34.133334h375.466666z"  horiz-adv-x="1024" />

    
    <glyph glyph-name="maodian" unicode="&#59476;" d="M832 416a320 320 0 0 1-288 286.4V768h-64v-65.6a320 320 0 0 1-286.4-288H128v-64h65.6a320 320 0 0 1 288-288V0h64v64A320 320 0 0 1 832 352h64v64zM512 128a256 256 0 1 0 256 256 256 256 0 0 0-256-256zM384 384a128 128 0 1 1 256 0 128 128 0 1 1-256 0z"  horiz-adv-x="1024" />

    
    <glyph glyph-name="jiantou_yemian_xiangxia_o" unicode="&#60311;" d="M487.72740704 422.83614777L269.27407371 641.2894811l33.98163 33.98163001 184.47170333-184.47170332L672.1991115 675.27111111l33.98162887-33.98163001-218.45333333-218.45333333z m0-291.27111111L269.27407371 350.01836999l33.98163 33.98163001 184.47170333-184.47170333 184.47170446 184.47170333 33.98162887-33.98163001-218.45333333-218.45333333z"  horiz-adv-x="1024" />

    
    <glyph glyph-name="fsux_tubiao_gongshi_jisuan" unicode="&#59474;" d="M420.7408 433.661975L248.134117 643.238428h175.072145s61.620744 4.716854 83.813553-25.901341c22.196458-30.616978 29.587979-77.712537 29.587979-77.712537h22.195242l-9.854551 143.653617H127.334982v-21.193001l216.95946-254.3221L127.334982 165.21120800000006v-23.551428h431.468054l27.128599 160.140712-22.191593 4.705907s-7.39517-35.324102-36.985582-68.288561c-29.587979-32.972973-145.475651-28.257335-145.475652-28.257335H225.953471l194.787329 223.701472z m0 0M632.119826 250.45514300000002l-17.559881 12.365016 198.733041 308.087907 17.536771-12.352853L632.119826 250.45514300000002m9.464115 185.813386c-6.350359 0-10.581905 4.420074-10.581905 11.059915v116.096878c0 6.634976 4.231546 11.058699 10.581905 11.058698 6.347927 0 10.581905-4.423723 10.581905-11.058698v-117.201288c0-5.535431-5.290952-9.955505-10.581905-9.955505z m0 0M580.191864 516.9829219999999h121.719882c6.354008 0 10.585554-4.420074 10.585554-11.053834 0-6.63376-4.231546-11.059915-10.585554-11.059915H580.191864m305.886384-173.591894H764.359581c-6.355225 0-10.581905 4.417641-10.581905 11.056266 0 6.639841 4.231546 11.058699 10.581905 11.058699h121.71745c6.354008 0 10.587987-4.426155 10.587987-11.058699-0.004865-6.638625-4.233978-11.056266-10.58677-11.056266z m-1.058191 58.60186H763.301391c-6.355225 0-10.58677 4.423723-10.58677 11.058698 0 6.627678 4.231546 11.053834 10.58677 11.053834h121.71745c6.356441 0 10.584338-4.426155 10.584338-11.053834 0.001216-6.636192-4.227897-11.058699-10.583122-11.058698z m0 0"  horiz-adv-x="1024" />

    
    <glyph glyph-name="tiaowenmatiaoma" unicode="&#59473;" d="M141.63990891 754.78857422h27.11512101v-741.57714844H141.63990891zM632.85933238 754.78857422h127.44650221v-741.57714844h-127.4465022zM187.91304333 754.78857422h15.5672056v-741.57714844h-15.56720561zM225.20614195 754.78857422h15.56720633v-741.57714844h-15.56720633zM268.31393469 754.78857422h32.92981582v-741.57714844H268.31393469zM867.04937196 754.78857422h15.5672056v-741.57714844h-15.5672056zM830.10026592 754.78857422h15.56720633v-741.57714844h-15.56720633zM791.60922545 754.78857422h15.56720632v-741.57714844h-15.56720632zM331.09573078 754.78857422h52.25982517v-741.57714844H331.09573078zM452.29603874 754.78857422h27.11512173v-741.57714844h-27.11512173zM498.57219088 754.78857422h15.56720633v-741.57714844h-15.56720633zM535.8622725 754.78857422h15.56720561v-741.57714844h-15.56720561z"  horiz-adv-x="1024" />

    
    <glyph glyph-name="zhediemianban" unicode="&#59472;" d="M774.4 649.6c-6.4 6.4-16 9.6-22.4 9.6-9.6 0-16-3.2-22.4-9.6l-67.2-67.2c-12.8-12.8-12.8-32 0-44.8 12.8-12.8 32-12.8 44.8 0l44.8 44.8 44.8-44.8c12.8-12.8 32-12.8 44.8 0 12.8 12.8 12.8 32 0 44.8l-67.2 67.2zM896 768h-768c-35.2 0-64-28.8-64-64v-640c0-35.2 28.8-64 64-64h768c35.2 0 64 28.8 64 64v640c0 35.2-28.8 64-64 64zM896 96c0-16-12.8-32-32-32h-704c-19.2 0-32 16-32 32v320h768v-320zM896 480h-768v192c0 16 12.8 32 32 32h704c19.2 0 32-16 32-32v-192z"  horiz-adv-x="1024" />

    
    <glyph glyph-name="icon--2" unicode="&#59470;" d="M705.87733333 506.88L512 313.00266667000005l-193.87733333 193.87733333c-10.92266667 10.92266667-27.30666667 10.92266667-38.22933334 0-10.92266667-10.92266667-10.92266667-27.30666667 0-38.22933333l210.26133334-210.26133334c5.46133333-5.46133333 16.384-8.192 24.576-8.192 8.192-2.73066667 16.384 0 24.576 8.192l210.26133333 210.26133334c10.92266667 10.92266667 10.92266667 27.30666667 0 38.22933333-16.384 10.92266667-32.768 10.92266667-43.69066667 0zM512 820.90666667C271.70133333 820.90666667 75.09333333 624.29866667 75.09333333 384s196.608-436.90666667 436.90666667-436.90666667 436.90666667 196.608 436.90666667 436.90666667S752.29866667 820.90666667 512 820.90666667z m0-819.2c-210.26133333 0-382.29333333 172.032-382.29333333 382.29333333S301.73866667 766.29333333 512 766.29333333s382.29333333-172.032 382.29333333-382.29333333-172.032-382.29333333-382.29333333-382.29333333z"  horiz-adv-x="1024" />

    
    <glyph glyph-name="on" unicode="&#59471;" d="M512-64C264.97-64 64 136.97 64 384S264.97 832 512 832s448-200.97 448-448-200.97-448-448-448z m0 843.29c-217.97 0-395.29-177.33-395.29-395.29S294.03-11.29 512-11.29 907.29 166.03 907.29 384 729.96 779.29 512 779.29zM722.82 252.24c-6.74 0-13.49 2.57-18.63 7.72L512 452.15 319.82 259.96c-10.29-10.29-26.98-10.29-37.27 0s-10.29 26.97 0 37.26l192.19 192.19c9.96 9.96 23.19 15.43 37.26 15.43 14.09 0 27.32-5.48 37.28-15.44l192.18-192.18c10.29-10.29 10.29-26.97 0-37.26a26.282 26.282 0 0 0-18.64-7.72z"  horiz-adv-x="1024" />

    
    <glyph glyph-name="neibiankuang-shu" unicode="&#59467;" d="M927.744-31.744h64v-64h-64v64z m-63.488-64.512h-64v64h64v-64z m-128 0h-64v64h64v-64z m-128 0h-64v64h64v-64z m-128 0H415.744v64h64v-64z m-128 0H287.744v64h64v-64z m-128 0H159.744v64h64v-64zM31.744-31.744h64v-64H31.744v64z m64.512 63.488H31.744v64h64v-64z m0 128H31.744v64h64v-64z m0 128H31.744v64h64v-64z m0 128H31.744V480.256h64v-64.512z m0 128H31.744V608.256h64v-64.512z m0 128H31.744V736.256h64v-64.512zM31.744 864.256h64v-64H31.744V864.256z m832.512-64.512h-64V864.256h64v-64.512z m-128 0h-64V864.256h64v-64.512z m-128 0h-64V864.256h64v-64.512z m-128 0H415.744V864.256h64v-64.512z m-128 0H287.744V864.256h64v-64.512z m-128 0H159.744V864.256h64v-64.512zM927.744 864.256h64v-64h-64V864.256z m64.512-832.512h-64v64h64v-64z m0 128h-64v64h64v-64z m0 128h-64v64h64v-64z m0 128h-64V480.256h64v-64.512z m0 128h-64V608.256h64v-64.512z m0 128h-64V736.256h64v-64.512z m-64.512-319.488h-64V415.744h64v-63.488z m-128 0h-64V415.744h64v-63.488z m-128 0h-64V415.744h64v-63.488z m-128 0H480.256V415.744h64v-63.488z m-128 0H352.256V415.744h64v-63.488z m-128 0H224.256V415.744h64v-63.488z m-128 0H96.256V415.744h64v-63.488zM543.744-32.256H480.256V801.28h64v-833.536z"  horiz-adv-x="1024" />

    
    <glyph glyph-name="neibiankuang-heng" unicode="&#59468;" d="M927.744-31.744h64v-64h-64v64z m-63.488-64.512h-64v64h64v-64z m-128 0h-64v64h64v-64z m-128 0h-64v64h64v-64z m-128 0H415.744v64h64v-64z m-128 0H287.744v64h64v-64z m-128 0H159.744v64h64v-64zM31.744-31.744h64v-64H31.744v64z m64.512 63.488H31.744v64h64v-64z m0 128H31.744v64h64v-64z m0 128H31.744v64h64v-64z m0 128H31.744V480.256h64v-64.512z m0 128H31.744V608.256h64v-64.512z m0 128H31.744V736.256h64v-64.512zM31.744 864.256h64v-64H31.744V864.256z m832.512-64.512h-64V864.256h64v-64.512z m-128 0h-64V864.256h64v-64.512z m-128 0h-64V864.256h64v-64.512z m-128 0H415.744V864.256h64v-64.512z m-128 0H287.744V864.256h64v-64.512z m-128 0H159.744V864.256h64v-64.512zM927.744 864.256h64v-64h-64V864.256z m64.512-832.512h-64v64h64v-64z m0 128h-64v64h64v-64z m0 128h-64v64h64v-64z m0 128h-64V480.256h64v-64.512z m0 128h-64V608.256h64v-64.512z m0 128h-64V736.256h64v-64.512z m-64.512-319.488h-64V415.744h64v-63.488z m-128 0h-64V415.744h64v-63.488z m-128 0h-64V415.744h64v-63.488z m-128 0H480.256V415.744h64v-63.488z m-128 0H352.256V415.744h64v-63.488z m-128 0H224.256V415.744h64v-63.488z m-128 0H96.256V415.744h64v-63.488z m768 0H96.256V415.744h832v-63.488zM543.744-31.744H480.256v64h64v-64z m0 128H480.256v64h64v-64z m0 128H480.256v64h64v-64z m0 128H480.256V415.744h64v-63.488z m0 128H480.256V543.744h64v-63.488z m0 128H480.256V671.744h64v-63.488z m0 128H480.256V799.744h64v-63.488z"  horiz-adv-x="1024" />

    
    <glyph glyph-name="neibiankuang" unicode="&#59469;" d="M927.744-31.744h64v-64h-64v64z m-63.488-64.512h-64v64h64v-64z m-128 0h-64v64h64v-64z m-128 0h-64v64h64v-64z m-128 0H415.744v64h64v-64h0.512z m-128 0H287.744v64h64v-64h0.512z m-128 0H159.744v64h64l0.512-64zM31.744-31.744h64v-64H31.744v64z m64.512 63.488H31.744v64h64l0.512-64z m0 128H31.744v64h64l0.512-64z m0 128H31.744v64h64l0.512-64z m0 128H31.744V480.256h64l0.512-64.512z m0 128H31.744V608.256h64l0.512-64.512z m0 128H31.744V736.256h64l0.512-64.512zM31.744 864.256h64v-64H31.744V864.256z m832.512-64.512h-64V864.256h64v-64.512z m-128 0h-64V864.256h64v-64.512z m-128 0h-64V864.256h64v-64.512z m-128 0H415.744V864.256h64v-64.512h0.512z m-128 0H287.744V864.256h64v-64.512h0.512z m-128 0H159.744V864.256h64l0.512-64.512zM927.744 864.256h64v-64h-64V864.256z m64.512-832.512h-64v64h64v-64z m0 128h-64v64h64v-64z m0 128h-64v64h64v-64z m0 128h-64V480.256h64v-64.512z m0 128h-64V608.256h64v-64.512z m0 128h-64V736.256h64v-64.512z m-64.512-319.488h-64V415.744h64v-63.488z m-128 0h-64V415.744h64v-63.488z m-128 0h-64V415.744h64v-63.488z m-128 0H480.256V415.744h64v-63.488h-0.512z m-128 0H352.256V415.744h64v-63.488h-0.512z m-128 0H224.256V415.744h64l-0.512-63.488z m-128 0H96.256V415.744h64l-0.512-63.488zM480.768 801.28h63.488v-833.536H480.256V801.28h0.512zM928.768 415.744v-63.488H95.232V416.256h833.536v-0.512z"  horiz-adv-x="1024" />

    
    <glyph glyph-name="jurassic_border-bottom" unicode="&#59461;" d="M32 736h64v-64H32zM32 608h64v-64H32zM32 480h64v-64H32zM32 96h64v-64H32zM32 224h64v-64H32zM32 352h64v-64H32zM32 864h64v-64H32zM800 864h64v-64h-64zM672 864h64v-64h-64zM288 864h64v-64h-64zM544 864h64v-64h-64zM416 864h64v-64h-64zM160 864h64v-64h-64zM928 864h64v-64h-64zM928 608h64v-64h-64zM928 480h64v-64h-64zM928 736h64v-64h-64zM928 352h64v-64h-64zM928 96h64v-64h-64zM928 224h64v-64h-64zM224 416h64v-64h-64zM352 416h64v-64h-64zM608 416h64v-64h-64zM736 416h64v-64h-64zM96 416h64v-64H96zM864 416h64v-64h-64zM480 672h64v-64h-64zM480 288h64v-64h-64zM480 544h64v-64h-64zM480 160h64v-64h-64zM480 800h64v-64h-64zM480 416h64v-64h-64zM928-32H544v64h-64v-64H32v-64h960v64h-32z"  horiz-adv-x="1024" />

    
    <glyph glyph-name="jurassic_border-none" unicode="&#59462;" d="M928-32h64v-64h-64zM864-96h-64v64h64v-64z m-128 0h-64v64h64v-64z m-128 0h-64v64h64v-64z m-128 0h-64v64h64v-64z m-128 0h-64v64h64v-64z m-128 0h-64v64h64v-64zM32-32h64v-64H32zM96 32H32v64h64v-64z m0 128H32v64h64v-64z m0 128H32v64h64v-64z m0 128H32v64h64v-64z m0 128H32v64h64v-64z m0 128H32v64h64v-64zM32 864h64v-64H32zM864 800h-64V864h64v-64z m-128 0h-64V864h64v-64z m-128 0h-64V864h64v-64z m-128 0h-64V864h64v-64z m-128 0h-64V864h64v-64z m-128 0h-64V864h64v-64zM928 864h64v-64h-64zM992 32h-64v64h64v-64z m0 128h-64v64h64v-64z m0 128h-64v64h64v-64z m0 128h-64v64h64v-64z m0 128h-64v64h64v-64z m0 128h-64v64h64v-64zM928 352h-64v64h64v-64z m-128 0h-64v64h64v-64z m-128 0h-64v64h64v-64z m-128 0h-64v64h64v-64z m-128 0h-64v64h64v-64z m-128 0h-64v64h64v-64z m-128 0H96v64h64v-64zM544-32h-64v64h64v-64z m0 128h-64v64h64v-64z m0 128h-64v64h64v-64z m0 128h-64v64h64v-64z m0 128h-64v64h64v-64z m0 128h-64v64h64v-64z m0 128h-64V800h64v-64z"  horiz-adv-x="1024" />

    
    <glyph glyph-name="jurassic_border-outside" unicode="&#59463;" d="M992-96H32V864h960v-960zM96-32h832V800H96v-832zM928 352h-64v64h64v-64z m-128 0h-64v64h64v-64z m-128 0h-64v64h64v-64z m-128 0h-64v64h64v-64z m-128 0h-64v64h64v-64z m-128 0h-64v64h64v-64z m-128 0H96v64h64v-64zM544-32h-64v64h64v-64z m0 128h-64v64h64v-64z m0 128h-64v64h64v-64z m0 128h-64v64h64v-64z m0 128h-64v64h64v-64z m0 128h-64v64h64v-64z m0 128h-64V800h64v-64z"  horiz-adv-x="1024" />

    
    <glyph glyph-name="jurassic_border-right" unicode="&#59464;" d="M928-32h64v-64h-64zM864-96h-64v64h64v-64z m-128 0h-64v64h64v-64z m-128 0h-64v64h64v-64z m-128 0h-64v64h64v-64z m-128 0h-64v64h64v-64z m-128 0h-64v64h64v-64zM32-32h64v-64H32zM96 32H32v64h64v-64z m0 128H32v64h64v-64z m0 128H32v64h64v-64z m0 128H32v64h64v-64z m0 128H32v64h64v-64z m0 128H32v64h64v-64zM32 864h64v-64H32zM864 800h-64V864h64v-64z m-128 0h-64V864h64v-64z m-128 0h-64V864h64v-64z m-128 0h-64V864h64v-64z m-128 0h-64V864h64v-64z m-128 0h-64V864h64v-64zM928 864h64v-64h-64zM992 32h-64v64h64v-64z m0 128h-64v64h64v-64z m0 128h-64v64h64v-64z m0 128h-64v64h64v-64z m0 128h-64v64h64v-64z m0 128h-64v64h64v-64zM928 352h-64v64h64v-64z m-128 0h-64v64h64v-64z m-128 0h-64v64h64v-64z m-128 0h-64v64h64v-64z m-128 0h-64v64h64v-64z m-128 0h-64v64h64v-64z m-128 0H96v64h64v-64zM544-32h-64v64h64v-64z m0 128h-64v64h64v-64z m0 128h-64v64h64v-64z m0 128h-64v64h64v-64z m0 128h-64v64h64v-64z m0 128h-64v64h64v-64z m0 128h-64V800h64v-64zM928 831h64v-895h-64z"  horiz-adv-x="1024" />

    
    <glyph glyph-name="jurassic_border-top" unicode="&#59465;" d="M928-32h64v-64h-64zM800-32h64v-64h-64zM672-32h64v-64h-64zM288-32h64v-64h-64zM416-32h64v-64h-64zM160-32h64v-64h-64zM544-32h64v-64h-64zM32-32h64v-64H32zM32 96h64v-64H32zM32 224h64v-64H32zM32 480h64v-64H32zM32 352h64v-64H32zM32 608h64v-64H32zM32 736h64v-64H32zM960 864H32v-64h448v-64h64V800h448V864zM928 736h64v-64h-64zM928 608h64v-64h-64zM928 480h64v-64h-64zM928 352h64v-64h-64zM928 96h64v-64h-64zM928 224h64v-64h-64zM96 416h64v-64H96zM352 416h64v-64h-64zM864 416h64v-64h-64zM608 416h64v-64h-64zM736 416h64v-64h-64zM224 416h64v-64h-64zM480 160h64v-64h-64zM480 32h64v-64h-64zM480 672h64v-64h-64zM480 288h64v-64h-64zM480 544h64v-64h-64zM480 416h64v-64h-64z"  horiz-adv-x="1024" />

    
    <glyph glyph-name="jurassic_border-left" unicode="&#59466;" d="M928-32h64v-64h-64zM800-32h64v-64h-64zM672-32h64v-64h-64zM288-32h64v-64h-64zM160-32h64v-64h-64zM544-32h64v-64h-64zM416-32h64v-64h-64zM800 864h64v-64h-64zM672 864h64v-64h-64zM160 864h64v-64h-64zM544 864h64v-64h-64zM288 864h64v-64h-64zM416 864h64v-64h-64zM928 864h64v-64h-64zM928 224h64v-64h-64zM928 608h64v-64h-64zM928 736h64v-64h-64zM928 96h64v-64h-64zM928 480h64v-64h-64zM928 352h64v-64h-64zM224 416h64v-64h-64zM736 416h64v-64h-64zM864 416h64v-64h-64zM160 416H96V864H32v-960h64V352h64zM608 416h64v-64h-64zM352 416h64v-64h-64zM480 800h64v-64h-64zM480 672h64v-64h-64zM480 544h64v-64h-64zM480 288h64v-64h-64zM480 32h64v-64h-64zM480 160h64v-64h-64zM480 416h64v-64h-64z"  horiz-adv-x="1024" />

    
    <glyph glyph-name="tubiao3" unicode="&#59457;" d="M437.996 198.481V309.278H327.195c-61.187 0-110.797-49.61-110.797-110.797 0-61.195 49.61-110.797 110.797-110.797 61.192 0 110.801 49.602 110.801 110.797z m55.399 0c0-91.789-74.411-166.195-166.2-166.195C235.41 32.286 161 106.692 161 198.481c0 91.789 74.41 166.195 166.195 166.195h166.2v-166.195z m92.328 0V309.278H696.52c61.195 0 110.796-49.61 110.796-110.797 0-61.195-49.601-110.797-110.796-110.797-61.188 0-110.797 49.602-110.797 110.797z m-55.399 0c0-91.789 74.41-166.195 166.196-166.195 91.789 0 166.199 74.406 166.199 166.195 0 91.789-74.41 166.195-166.199 166.195H530.324v-166.195z m-92.328 369.324v-110.801H327.195c-61.187 0-110.797 49.61-110.797 110.801 0 61.188 49.61 110.797 110.797 110.797 61.192 0 110.801-49.609 110.801-110.797z m55.399 0c0 91.785-74.411 166.195-166.2 166.195C235.41 734 161 659.59 161 567.805c0-91.789 74.41-166.199 166.195-166.199h166.2V567.805z m92.328 0v-110.801H696.52c61.195 0 110.796 49.61 110.796 110.801 0 61.188-49.601 110.797-110.796 110.797-61.188 0-110.797-49.609-110.797-110.797z m-55.399 0C530.324 659.59 604.734 734 696.52 734c91.789 0 166.199-74.41 166.199-166.195 0-91.789-74.41-166.199-166.199-166.199H530.324V567.805z m0 0"  horiz-adv-x="1024" />

    
    <glyph glyph-name="daochu3" unicode="&#59460;" d="M852.65 3.033333330000005H171.35c-19.8 0-36 16.2-36 36V531.33333333c0 19.8 16.2 36 36 36h181.8v-54H189.35v-455.85h645.3V513.33333333h-175.5V567.33333333h193.5c19.8 0 36-16.2 36-36v-491.85c0-20.25-16.2-36.45-36-36.45zM353.15 540.33333333m-27 0a27 27 0 1 1 54 0 27 27 0 1 1-54 0ZM355.4 631.68333333m-27 0a27 27 0 1 1 54 0 27 27 0 1 1-54 0ZM670.85 630.33333333m-27 0a27 27 0 1 1 54 0 27 27 0 1 1-54 0ZM512.45 780.18333333m-27 0a27 27 0 1 1 54 0 27 27 0 1 1-54 0ZM659.15 540.33333333m-27 0a27 27 0 1 1 54 0 27 27 0 1 1-54 0ZM515.15 228.03333333h-4.5c-13.5 0-24.75 11.25-24.75 24.75V723.93333333c0 13.5 11.25 24.75 24.75 24.75h4.5c13.5 0 24.75-11.25 24.75-24.75v-471.15c0-13.5-11.25-24.75-24.75-24.75zM338.2685 652.65333333l155.943 147.5055 37.107-39.231-155.943-147.51zM493.8245 760.77933333l37.1115 39.231 155.943-147.51-37.1115-39.231z"  horiz-adv-x="1024" />

    
    <glyph glyph-name="zhuanfa-" unicode="&#59454;" d="M849.10294795 11.358017809999978c31.27482422 0 56.64343097 24.86236026 56.64343096 56.69968183V263.58159924999995c0 15.41241299 13.04992617 27.89984268 28.12484179 27.89984356 15.52491299 0 28.1248418-12.76867792 28.1248418-28.68733917v-194.62390488A112.55561719 112.55561719 0 0 0 849.83419356-44.66666667000004H174.16299394A112.38686807 112.38686807 0 0 0 62.001125 68.17019875999995v194.62390488a28.68733828 28.68733828 0 0 0 28.12484181 28.68733917c15.52491299 0 28.1248418-12.03743232 28.12484178-27.89984356v-195.52389961c0-31.33107334 25.31235761-56.69968096 56.64343096-56.69968184h674.2087084zM568.24827734 471.81792766c-400.8352456-11.36243584-449.99746875-143.71794141-449.99746875-143.7179414 0 202.61136006 166.38656396 403.87272802 506.24715235 397.57276406v54.95594063l1.06874385 1.01249472H624.49796094v12.93742706c0 61.59340371 38.41853378 79.42455353 85.83701748 39.26227939L943.65866533 635.95450481c23.73736641-20.13738662 23.73736641-52.76220293 0-72.89958955l-233.54868603-198.39263466c-47.24973457-40.049775-85.61201836-22.61237257-85.61201836 39.14978027V472.60542327c-19.1811419 0-37.68728818-0.22499911-55.46218799-0.73124561L568.24827734 472.60542327v-0.78749561z m56.2496836 56.81218096c31.0498251 0 56.24968359-25.08735849 56.24968359-56.02468535v-58.49967041l219.37376602 185.45520674L680.74764453 785.57866282v-59.84966337a56.13718447 56.13718447 0 0 0-57.31842744-56.02468448c-210.93631347 3.93747802-358.70423203-80.21204912-418.89139364-205.87384161C285.87486551 502.08025804 418.17412109 528.5176094999999 624.49796094 528.5176094999999v0.11249912z"  horiz-adv-x="1024" />

    
    <glyph glyph-name="fenxiang" unicode="&#59455;" d="M725.22666667-93.75999999999999c-11.52 0-22.93333333 3.52-32.74666667 10.34666667L494.18666667 54.50666666999996c-1.6 1.06666667-3.73333333 0.96-5.12-0.42666667l-76.8-72.96c-17.28-16.42666667-42.34666667-20.48-63.78666667-10.34666667-21.54666667 10.02666667-34.45333333 31.89333333-32.96 55.68l9.6 151.25333334c0.85333333 12.90666667 6.08 25.38666667 14.82666667 34.98666666l230.4 253.65333334c9.92 10.88 26.77333333 11.73333333 37.65333333 1.81333333 10.88-9.92 11.73333333-26.77333333 1.81333333-37.65333333l-230.4-253.65333334c-0.64-0.64-0.96-1.6-1.06666666-2.45333333l-9.6-151.25333333c0-0.85333333-0.21333333-2.77333333 2.34666666-3.94666667 2.56-1.17333333 3.94666667 0.21333333 4.48 0.74666667l76.8 72.96c19.62666667 18.66666667 50.02666667 21.01333333 72.32 5.54666666l198.29333334-138.02666666c1.17333333-0.85333333 2.56-0.96 3.84-0.42666667 1.38666667 0.53333333 2.24 1.6 2.45333333 2.98666667L881.28 780.8c0.10666667 0.64 0.42666667 2.45333333-1.6 3.94666667-2.02666667 1.49333333-3.62666667 0.74666667-4.26666667 0.42666666l-795.62666666-396.8c-0.53333333-0.21333333-2.13333333-1.06666667-2.24-3.41333333-0.10666667-2.34666667 1.38666667-3.30666667 1.92-3.62666667l211.2-131.41333333c12.48-7.78666667 16.32-24.21333333 8.53333333-36.69333333s-24.21333333-16.32-36.69333333-8.53333334L51.2 336c-17.6 10.98666667-27.94666667 30.72-26.98666667 51.41333333 0.96 20.8 13.12 39.36 31.68 48.64l795.62666667 396.8c19.62666667 9.81333333 42.66666667 7.68 60.16-5.54666666s25.92-34.77333333 21.86666667-56.32L781.76-46.82666667000001c-3.62666667-19.2-16.53333333-35.2-34.66666667-42.66666666-7.04-2.88-14.50666667-4.26666667-21.86666666-4.26666667z"  horiz-adv-x="1024" />

    
    <glyph glyph-name="xiazai2" unicode="&#59456;" d="M481.28 52.90666667000005v273.06666666c0 13.65333333 13.65333333 27.30666667 27.30666667 27.30666667s27.30666667-13.65333333 27.30666666-27.30666667v-273.06666666l54.61333334 40.96c13.65333333 6.82666667 27.30666667 6.82666667 40.96-6.82666667 13.65333333-20.48 6.82666667-34.13333333-6.82666667-40.96l-102.4-75.09333333c0-6.82666667-6.82666667-6.82666667-13.65333333-6.82666667s-13.65333333 0-13.65333334 6.82666667l-102.4 75.09333333c-13.65333333 6.82666667-13.65333333 27.30666667-6.82666666 40.96 6.82666667 13.65333333 27.30666667 13.65333333 40.96 6.82666667l54.61333333-40.96zM262.82666667 93.86666666999997h-20.48C119.46666667 93.86666666999997 23.89333333 203.09333332999995 23.89333333 332.79999999999995c0 136.53333333 102.4 245.76 225.28 238.93333333C290.13333333 708.26666667 406.18666667 803.84 535.89333333 803.84 679.25333333 803.84 802.13333333 694.6133333299999 836.26666667 537.6c95.57333333-20.48 163.84-109.22666667 163.84-218.45333333C1000.10666667 196.26666666999995 911.36 93.86666666999997 802.13333333 93.86666666999997c-34.13333333 0-102.4 0-177.49333333 61.44-13.65333333 13.65333333-13.65333333 34.13333333 0 40.96 13.65333333 13.65333333 27.30666667 13.65333333 40.96 0 54.61333333-54.61333333 102.4-47.78666667 129.70666667-47.78666667h6.82666666c81.92 0 143.36 75.09333333 143.36 170.66666667 0 88.74666667-61.44 163.84-136.53333333 170.66666666-13.65333333 0-20.48 13.65333333-27.30666667 20.48-20.48 136.53333333-122.88 238.93333333-245.76 238.93333334-109.22666667 0-211.62666667-88.74666667-238.93333333-211.62666667 0-13.65333333-13.65333333-20.48-34.13333333-20.48h-27.30666667c-88.74666667 0-157.01333333-81.92-157.01333333-184.32 0-102.4 68.26666667-184.32 157.01333333-184.32h13.65333333c27.30666667 0 61.44 0 109.22666667 47.78666667 13.65333333 13.65333333 27.30666667 13.65333333 40.96 0 13.65333333-13.65333333 13.65333333-27.30666667 0-40.96-54.61333333-54.61333333-102.4-61.44-136.53333333-61.44z"  horiz-adv-x="1024" />

    
    <glyph glyph-name="gongju" unicode="&#59453;" d="M500.3 364c-43.3 0-78.6 35.2-78.6 78.6H370c0-3.6 0.1-7.2 0.4-10.7 5.5-66.9 61.6-119.7 129.9-119.7 66.6 0 121.7 50.2 129.4 114.7 0.6 5.1 0.9 10.4 0.9 15.7h-51.8c0.1-43.3-35.2-78.6-78.5-78.6zM847.1 26.700000000000045H153.5c-27.8 0-50.4 22.6-50.4 50.4V598c0 27.8 22.6 50.4 50.4 50.4h693.7c27.8 0 50.4-22.6 50.4-50.4v-520.9c0-27.8-22.6-50.4-50.5-50.4z m-683.5 60.5h673.5V587.9H163.6v-500.7zM144.7 465.3H856v-60.5H144.7zM341.6 601.5h-60.5v102c0 27.2 22.1 49.3 49.3 49.3h339.8c27.2 0 49.3-22.1 49.3-49.3v-95.3H659v84.1H341.6v-90.8z"  horiz-adv-x="1024" />

    
    </font>
</defs>
</svg>
